%TF.GenerationSoftware,KiCad,Pcbnew,7.0.0*%
%TF.CreationDate,2023-03-08T15:39:59-05:00*%
%TF.ProjectId,left-side,6c656674-2d73-4696-9465-2e6b69636164,rev?*%
%TF.SameCoordinates,Original*%
%TF.FileFunction,Copper,L1,Top*%
%TF.FilePolarity,Positive*%
%FSLAX46Y46*%
G04 Gerber Fmt 4.6, Leading zero omitted, Abs format (unit mm)*
G04 Created by KiCad (PCBNEW 7.0.0) date 2023-03-08 15:39:59*
%MOMM*%
%LPD*%
G01*
G04 APERTURE LIST*
G04 Aperture macros list*
%AMRoundRect*
0 Rectangle with rounded corners*
0 $1 Rounding radius*
0 $2 $3 $4 $5 $6 $7 $8 $9 X,Y pos of 4 corners*
0 Add a 4 corners polygon primitive as box body*
4,1,4,$2,$3,$4,$5,$6,$7,$8,$9,$2,$3,0*
0 Add four circle primitives for the rounded corners*
1,1,$1+$1,$2,$3*
1,1,$1+$1,$4,$5*
1,1,$1+$1,$6,$7*
1,1,$1+$1,$8,$9*
0 Add four rect primitives between the rounded corners*
20,1,$1+$1,$2,$3,$4,$5,0*
20,1,$1+$1,$4,$5,$6,$7,0*
20,1,$1+$1,$6,$7,$8,$9,0*
20,1,$1+$1,$8,$9,$2,$3,0*%
G04 Aperture macros list end*
%ADD10C,0.625000*%
%TA.AperFunction,NonConductor*%
%ADD11C,0.625000*%
%TD*%
%TA.AperFunction,ComponentPad*%
%ADD12R,1.700000X1.700000*%
%TD*%
%TA.AperFunction,ComponentPad*%
%ADD13O,1.700000X1.700000*%
%TD*%
%TA.AperFunction,ComponentPad*%
%ADD14RoundRect,1.500000X1.500000X-1.500000X1.500000X1.500000X-1.500000X1.500000X-1.500000X-1.500000X0*%
%TD*%
%TA.AperFunction,ComponentPad*%
%ADD15C,6.000000*%
%TD*%
%TA.AperFunction,ComponentPad*%
%ADD16R,3.000000X3.000000*%
%TD*%
%TA.AperFunction,ComponentPad*%
%ADD17RoundRect,1.500000X-1.500000X1.500000X-1.500000X-1.500000X1.500000X-1.500000X1.500000X1.500000X0*%
%TD*%
%TA.AperFunction,Conductor*%
%ADD18C,2.540000*%
%TD*%
%TA.AperFunction,Conductor*%
%ADD19C,5.080000*%
%TD*%
%TA.AperFunction,Conductor*%
%ADD20C,1.016000*%
%TD*%
G04 APERTURE END LIST*
D10*
D11*
X173163270Y-146679108D02*
X175902755Y-145867635D01*
X173102256Y-148485093D02*
X173315804Y-142164144D01*
X173315804Y-142164144D02*
X176937535Y-147349032D01*
X176329237Y-141271524D02*
X179950968Y-146456412D01*
X179950968Y-146456412D02*
X180164516Y-140135463D01*
X183025415Y-143757807D02*
X185764900Y-142946335D01*
X182964402Y-145563792D02*
X183177949Y-139242843D01*
X183177949Y-139242843D02*
X186799681Y-144427731D01*
X191456805Y-143048228D02*
X188717320Y-143859700D01*
X188717320Y-143859700D02*
X187013228Y-138106782D01*
X192766147Y-136402690D02*
X193861940Y-136078101D01*
X193861940Y-136078101D02*
X194490985Y-136189755D01*
X194490985Y-136189755D02*
X195201176Y-136575357D01*
X195201176Y-136575357D02*
X195799714Y-137590004D01*
X195799714Y-137590004D02*
X196367744Y-139507644D01*
X196367744Y-139507644D02*
X196418385Y-140684585D01*
X196418385Y-140684585D02*
X196032782Y-141394776D01*
X196032782Y-141394776D02*
X195566033Y-141831019D01*
X195566033Y-141831019D02*
X194470239Y-142155608D01*
X194470239Y-142155608D02*
X193841194Y-142043954D01*
X193841194Y-142043954D02*
X193131003Y-141658352D01*
X193131003Y-141658352D02*
X192532465Y-140643705D01*
X192532465Y-140643705D02*
X191964435Y-138726066D01*
X191964435Y-138726066D02*
X191913794Y-137549124D01*
X191913794Y-137549124D02*
X192299397Y-136838933D01*
X192299397Y-136838933D02*
X192766147Y-136402690D01*
X199401311Y-140694958D02*
X197697219Y-134942040D01*
X197697219Y-134942040D02*
X202688693Y-139721191D01*
X202688693Y-139721191D02*
X200984601Y-133968273D01*
X206627940Y-132296640D02*
X212167311Y-136913497D01*
X210463219Y-131160578D02*
X208332032Y-138049558D01*
D12*
%TO.P,J3,1,Pin_1*%
%TO.N,Net-(A1-VOUT)*%
X62737999Y-125475999D03*
D13*
%TO.P,J3,2,Pin_2*%
%TO.N,unconnected-(J3-Pin_2-Pad2)*%
X62737999Y-128015999D03*
%TO.P,J3,3,Pin_3*%
%TO.N,GND*%
X62737999Y-130555999D03*
%TD*%
D14*
%TO.P,J1,1,Pin_1*%
%TO.N,GND*%
X147320000Y-112776000D03*
D15*
%TO.P,J1,2,Pin_2*%
%TO.N,+BATT*%
X147320000Y-105576000D03*
%TD*%
D16*
%TO.P,A1,1,VIN*%
%TO.N,+BATT*%
X124825999Y-118011999D03*
%TO.P,A1,2,GND*%
%TO.N,GND*%
X124825999Y-137511999D03*
%TO.P,A1,3,GND*%
X75325999Y-137511999D03*
%TO.P,A1,4,VOUT*%
%TO.N,Net-(A1-VOUT)*%
X75325999Y-118011999D03*
%TD*%
D17*
%TO.P,J2,1,Pin_1*%
%TO.N,GND*%
X147320000Y-123400000D03*
D15*
%TO.P,J2,2,Pin_2*%
%TO.N,+BATT*%
X147320000Y-130600000D03*
%TD*%
D18*
%TO.N,GND*%
X124826000Y-137512000D02*
X75326000Y-137512000D01*
D19*
%TO.N,+BATT*%
X147320000Y-105576000D02*
X137262000Y-105576000D01*
X147320000Y-130600000D02*
X151562640Y-130600000D01*
X137262000Y-105576000D02*
X124826000Y-118012000D01*
X151562640Y-105576000D02*
X147320000Y-105576000D01*
X155956000Y-109969360D02*
X151562640Y-105576000D01*
X151562640Y-130600000D02*
X155956000Y-126206640D01*
X155956000Y-126206640D02*
X155956000Y-109969360D01*
%TO.N,GND*%
X138938000Y-123400000D02*
X124826000Y-137512000D01*
D20*
X68370000Y-130556000D02*
X75326000Y-137512000D01*
X62738000Y-130556000D02*
X68370000Y-130556000D01*
D19*
X147320000Y-112776000D02*
X147320000Y-123400000D01*
X147320000Y-123400000D02*
X138938000Y-123400000D01*
D20*
%TO.N,Net-(A1-VOUT)*%
X67862000Y-125476000D02*
X62738000Y-125476000D01*
X75326000Y-118012000D02*
X67862000Y-125476000D01*
%TD*%
M02*
