0
SECTION
2
HEADER
9
$INSUNITS
70
4
9
$ACADVER
1
AC1014
9
$HANDSEED
5
FFFF
0
ENDSEC
0
SECTION
2
TABLES
0
TABLE
2
VPORT
5
8
100
AcDbSymbolTable
0
ENDTAB
0
TABLE
2
LTYPE
5
5
100
AcDbSymbolTable
0
LTYPE
5
14
100
AcDbSymbolTableRecord
100
AcDbLinetypeTableRecord
2
BYBLOCK
70
0
0
LTYPE
5
15
100
AcDbSymbolTableRecord
100
AcDbLinetypeTableRecord
2
BYLAYER
70
0
0
ENDTAB
0
TABLE
2
LAYER
5
2
100
AcDbSymbolTable
70
2
0
LAYER
5
50
100
AcDbSymbolTableRecord
100
AcDbLayerTableRecord
2
0
70
0
6
CONTINUOUS
0
ENDTAB
0
TABLE
2
STYLE
5
3
100
AcDbSymbolTable
70
1
0
STYLE
5
11
100
AcDbSymbolTableRecord
100
AcDbTextStyleTableRecord
2
STANDARD
70
0
0
ENDTAB
0
TABLE
2
VIEW
5
6
100
AcDbSymbolTable
70
0
0
ENDTAB
0
TABLE
2
UCS
5
7
100
AcDbSymbolTable
70
0
0
ENDTAB
0
TABLE
2
APPID
5
9
100
AcDbSymbolTable
70
2
0
APPID
5
12
100
AcDbSymbolTableRecord
100
AcDbRegAppTableRecord
2
ACAD
70
0
0
ENDTAB
0
TABLE
2
DIMSTYLE
5
A
100
AcDbSymbolTable
70
1
0
ENDTAB
0
TABLE
2
BLOCK_RECORD
5
1
100
AcDbSymbolTable
70
1
0
BLOCK_RECORD
5
1F
100
AcDbSymbolTableRecord
100
AcDbBlockTableRecord
2
*MODEL_SPACE
0
BLOCK_RECORD
5
1B
100
AcDbSymbolTableRecord
100
AcDbBlockTableRecord
2
*PAPER_SPACE
0
ENDTAB
0
ENDSEC
0
SECTION
2
BLOCKS
0
BLOCK
5
20
100
AcDbEntity
100
AcDbBlockBegin
2
*MODEL_SPACE
0
ENDBLK
5
21
100
AcDbEntity
100
AcDbBlockEnd
0
BLOCK
5
1C
100
AcDbEntity
100
AcDbBlockBegin
2
*PAPER_SPACE
0
ENDBLK
5
1D
100
AcDbEntity
100
AcDbBlockEnd
0
ENDSEC
0
SECTION
2
ENTITIES
0
CIRCLE
5
100
100
AcDbEntity
8
0
100
AcDbCircle
10
76.755697819825656
20
64.955697819825687
30
0
40
1.749999999999998
210
1.972152263052512e-31
220
2.272859095625045e-61
230
1
0
LWPOLYLINE
5
101
100
AcDbEntity
8
0
100
AcDbPolyline
90
4
70
1
43
0.0
10
91.15569781982569
20
13.955697819825694
42
0.99999999999999989
10
94.355697819825679
20
13.955697819825694
10
94.355697819825707
20
21.126828787862578
42
3.7992931449769149
10
91.15569781982569
20
21.126828787862575
0
CIRCLE
5
102
100
AcDbEntity
8
0
100
AcDbCircle
10
182.75569781982566
20
67.666970600396766
30
0
40
1.7500000000000071
210
1.1870460337848216e-31
220
6.0330426554526827e-48
230
1
0
CIRCLE
5
103
100
AcDbEntity
8
0
100
AcDbCircle
10
32.755697819825677
20
29.555697819825721
30
0
40
1.7500000000000027
210
1.1870460337848216e-31
220
6.0330426554526815e-48
230
1
0
CIRCLE
5
104
100
AcDbEntity
8
0
100
AcDbCircle
10
32.755697819825677
20
7.9556978198256871
30
4.4408920985006262e-15
40
1.7500000000000027
210
1.1870460337848216e-31
220
6.0330426554526815e-48
230
1
0
CIRCLE
5
105
100
AcDbEntity
8
0
100
AcDbCircle
10
141.68032625726593
20
67.666970600396766
30
0
40
1.7500000000000071
210
1.1870460337848216e-31
220
6.0330426554526827e-48
230
1
0
CIRCLE
5
106
100
AcDbEntity
8
0
100
AcDbCircle
10
175.75569781982566
20
55.666970600396766
30
0
40
1.7500000000000071
210
1.1870460337848216e-31
220
6.0330426554526827e-48
230
1
0
CIRCLE
5
107
100
AcDbEntity
8
0
100
AcDbCircle
10
127.68032625726593
20
55.666970600396766
30
0
40
1.7500000000000071
210
1.1870460337848216e-31
220
6.0330426554526827e-48
230
1
0
CIRCLE
5
108
100
AcDbEntity
8
0
100
AcDbCircle
10
127.68032625726593
20
68.955697819825673
30
0
40
1.7500000000000071
210
1.1870460337848216e-31
220
6.0330426554526827e-48
230
1
0
LWPOLYLINE
5
109
100
AcDbEntity
8
0
100
AcDbPolyline
90
10
70
1
43
0.0
10
29.75569781982567
20
62.95569781982568
10
29.75569781982567
20
33.898843570333284
10
25.75569781982567
20
33.898843570333291
10
25.75569781982567
20
-0.38744793068195005
10
29.755697819825674
20
-0.38744793068195227
10
29.75569781982567
20
-6.0443021801743146
10
55.75569781982567
20
-6.0443021801743075
10
190.75569781982568
20
33.955697819825716
10
190.75569781982566
20
83.955697819825716
10
50.755697819825656
20
83.955697819825701
0
LINE
5
110
100
AcDbEntity
8
0
100
AcDbLine
10
45.755697819825663
20
-32.044302180174299
30
0
11
45.755697819825663
21
58.955697819825694
31
0
0
LINE
5
111
100
AcDbEntity
8
0
100
AcDbLine
10
107.75569781982568
20
-32.044302180174299
30
0
11
45.755697819825663
21
-32.044302180174299
31
-6.8600899411223765e-30
0
LINE
5
112
100
AcDbEntity
8
0
100
AcDbLine
10
45.755697819825663
20
58.955697819825694
30
0
11
107.75569781982568
21
58.955697819825694
31
0
0
LINE
5
113
100
AcDbEntity
8
0
100
AcDbLine
10
107.75569781982568
20
58.955697819825694
30
0
11
107.75569781982568
21
-32.044302180174299
31
0
0
LWPOLYLINE
5
114
100
AcDbEntity
8
0
100
AcDbPolyline
90
4
70
1
43
0.0
10
59.155697819825662
20
13.955697819825692
42
0.99999999999999989
10
62.355697819825664
20
13.955697819825692
10
62.355697819825664
20
21.126828787862578
42
3.7992931449769221
10
59.155697819825647
20
21.126828787862571
0
ENDSEC
0
SECTION
2
OBJECTS
0
DICTIONARY
5
C
100
AcDbDictionary
3
ACAD_GROUP
350
D
3
ACAD_MLINESTYLE
350
17
0
DICTIONARY
5
D
100
AcDbDictionary
0
DICTIONARY
5
1A
330
C
100
AcDbDictionary
0
DICTIONARY
5
17
100
AcDbDictionary
0
ENDSEC
0
EOF
