M48
; DRILL file {KiCad 7.0.0} date Wed 08 Mar 2023 03:38:54 PM EST
; FORMAT={-:-/ absolute / inch / decimal}
; #@! TF.CreationDate,2023-03-08T15:38:54-05:00
; #@! TF.GenerationSoftware,Kicad,Pcbnew,7.0.0
; #@! TF.FileFunction,Plated,1,2,PTH
FMAT,2
INCH
; #@! TA.AperFunction,Plated,PTH,ViaDrill
T1C0.0157
; #@! TA.AperFunction,Plated,PTH,ComponentDrill
T2C0.0236
; #@! TA.AperFunction,Plated,PTH,ComponentDrill
T3C0.0315
; #@! TA.AperFunction,Plated,PTH,ComponentDrill
T4C0.0394
; #@! TA.AperFunction,Plated,PTH,ComponentDrill
T5C0.0650
; #@! TA.AperFunction,Plated,PTH,ComponentDrill
T6C0.1772
%
G90
G05
T1
X3.27Y-3.93
X8.32Y-5.55
X8.48Y-5.46
T2
X3.16Y-3.8
X3.2092Y-3.8
X3.2584Y-3.8
X3.3076Y-3.8
X3.3569Y-3.8
X3.4061Y-3.8
X3.8216Y-3.8
X3.8708Y-3.8
X3.92Y-3.8
X4.737Y-3.7997
X4.7862Y-3.7997
X4.8354Y-3.7997
X4.8846Y-3.7997
X4.9338Y-3.7997
X4.983Y-3.7997
T3
X4.09Y-3.88
X4.09Y-4.01
X4.1916Y-3.75
X4.3884Y-3.75
X4.49Y-3.88
X4.49Y-4.01
X4.763Y-4.0797
X4.763Y-4.2097
X4.8662Y-3.9497
X5.063Y-3.9497
X5.163Y-4.0797
X5.163Y-4.2097
T4
X5.4094Y-3.76
X5.5094Y-3.76
X5.55Y-4.23
X5.55Y-4.33
X5.55Y-4.43
X5.6094Y-3.76
X8.43Y-5.57
X8.53Y-5.57
X8.63Y-5.57
X8.73Y-5.57
X8.83Y-5.57
X8.93Y-5.57
T5
X5.9656Y-2.9061
X5.9656Y-3.6739
X5.9656Y-3.8661
X5.9656Y-4.6339
X7.9144Y-2.9061
X7.9144Y-3.6739
X7.9144Y-3.8661
X7.9144Y-4.6339
T6
X8.3265Y-3.3909
X8.3265Y-3.7809
X8.3283Y-4.1709
X8.45Y-2.6217
X8.61Y-3.3909
X8.61Y-3.7809
X8.6117Y-4.1709
X8.6504Y-2.8222
T0
M30
