%TF.GenerationSoftware,KiCad,Pcbnew,7.0.0*%
%TF.CreationDate,2023-03-08T15:38:49-05:00*%
%TF.ProjectId,right-side,72696768-742d-4736-9964-652e6b696361,rev?*%
%TF.SameCoordinates,Original*%
%TF.FileFunction,Legend,Top*%
%TF.FilePolarity,Positive*%
%FSLAX46Y46*%
G04 Gerber Fmt 4.6, Leading zero omitted, Abs format (unit mm)*
G04 Created by KiCad (PCBNEW 7.0.0) date 2023-03-08 15:38:49*
%MOMM*%
%LPD*%
G01*
G04 APERTURE LIST*
%ADD10C,0.150000*%
%ADD11C,0.120000*%
G04 APERTURE END LIST*
D10*
X138700190Y-117130380D02*
X138700190Y-116130380D01*
X138700190Y-116130380D02*
X139033523Y-116844666D01*
X139033523Y-116844666D02*
X139366856Y-116130380D01*
X139366856Y-116130380D02*
X139366856Y-117130380D01*
X139985904Y-117130380D02*
X139890666Y-117082761D01*
X139890666Y-117082761D02*
X139843047Y-117035142D01*
X139843047Y-117035142D02*
X139795428Y-116939904D01*
X139795428Y-116939904D02*
X139795428Y-116654190D01*
X139795428Y-116654190D02*
X139843047Y-116558952D01*
X139843047Y-116558952D02*
X139890666Y-116511333D01*
X139890666Y-116511333D02*
X139985904Y-116463714D01*
X139985904Y-116463714D02*
X140128761Y-116463714D01*
X140128761Y-116463714D02*
X140223999Y-116511333D01*
X140223999Y-116511333D02*
X140271618Y-116558952D01*
X140271618Y-116558952D02*
X140319237Y-116654190D01*
X140319237Y-116654190D02*
X140319237Y-116939904D01*
X140319237Y-116939904D02*
X140271618Y-117035142D01*
X140271618Y-117035142D02*
X140223999Y-117082761D01*
X140223999Y-117082761D02*
X140128761Y-117130380D01*
X140128761Y-117130380D02*
X139985904Y-117130380D01*
X140747809Y-116463714D02*
X140747809Y-117130380D01*
X140747809Y-116558952D02*
X140795428Y-116511333D01*
X140795428Y-116511333D02*
X140890666Y-116463714D01*
X140890666Y-116463714D02*
X141033523Y-116463714D01*
X141033523Y-116463714D02*
X141128761Y-116511333D01*
X141128761Y-116511333D02*
X141176380Y-116606571D01*
X141176380Y-116606571D02*
X141176380Y-117130380D01*
X141652571Y-117130380D02*
X141652571Y-116463714D01*
X141652571Y-116130380D02*
X141604952Y-116178000D01*
X141604952Y-116178000D02*
X141652571Y-116225619D01*
X141652571Y-116225619D02*
X141700190Y-116178000D01*
X141700190Y-116178000D02*
X141652571Y-116130380D01*
X141652571Y-116130380D02*
X141652571Y-116225619D01*
X141985904Y-116463714D02*
X142366856Y-116463714D01*
X142128761Y-116130380D02*
X142128761Y-116987523D01*
X142128761Y-116987523D02*
X142176380Y-117082761D01*
X142176380Y-117082761D02*
X142271618Y-117130380D01*
X142271618Y-117130380D02*
X142366856Y-117130380D01*
X142843047Y-117130380D02*
X142747809Y-117082761D01*
X142747809Y-117082761D02*
X142700190Y-117035142D01*
X142700190Y-117035142D02*
X142652571Y-116939904D01*
X142652571Y-116939904D02*
X142652571Y-116654190D01*
X142652571Y-116654190D02*
X142700190Y-116558952D01*
X142700190Y-116558952D02*
X142747809Y-116511333D01*
X142747809Y-116511333D02*
X142843047Y-116463714D01*
X142843047Y-116463714D02*
X142985904Y-116463714D01*
X142985904Y-116463714D02*
X143081142Y-116511333D01*
X143081142Y-116511333D02*
X143128761Y-116558952D01*
X143128761Y-116558952D02*
X143176380Y-116654190D01*
X143176380Y-116654190D02*
X143176380Y-116939904D01*
X143176380Y-116939904D02*
X143128761Y-117035142D01*
X143128761Y-117035142D02*
X143081142Y-117082761D01*
X143081142Y-117082761D02*
X142985904Y-117130380D01*
X142985904Y-117130380D02*
X142843047Y-117130380D01*
X143604952Y-117130380D02*
X143604952Y-116463714D01*
X143604952Y-116654190D02*
X143652571Y-116558952D01*
X143652571Y-116558952D02*
X143700190Y-116511333D01*
X143700190Y-116511333D02*
X143795428Y-116463714D01*
X143795428Y-116463714D02*
X143890666Y-116463714D01*
X139940428Y-101520094D02*
X139940428Y-100758190D01*
X140321380Y-101139142D02*
X139559476Y-101139142D01*
X139321380Y-99805809D02*
X139321380Y-100281999D01*
X139321380Y-100281999D02*
X139797571Y-100329618D01*
X139797571Y-100329618D02*
X139749952Y-100281999D01*
X139749952Y-100281999D02*
X139702333Y-100186761D01*
X139702333Y-100186761D02*
X139702333Y-99948666D01*
X139702333Y-99948666D02*
X139749952Y-99853428D01*
X139749952Y-99853428D02*
X139797571Y-99805809D01*
X139797571Y-99805809D02*
X139892809Y-99758190D01*
X139892809Y-99758190D02*
X140130904Y-99758190D01*
X140130904Y-99758190D02*
X140226142Y-99805809D01*
X140226142Y-99805809D02*
X140273761Y-99853428D01*
X140273761Y-99853428D02*
X140321380Y-99948666D01*
X140321380Y-99948666D02*
X140321380Y-100186761D01*
X140321380Y-100186761D02*
X140273761Y-100281999D01*
X140273761Y-100281999D02*
X140226142Y-100329618D01*
X140226142Y-99329618D02*
X140273761Y-99281999D01*
X140273761Y-99281999D02*
X140321380Y-99329618D01*
X140321380Y-99329618D02*
X140273761Y-99377237D01*
X140273761Y-99377237D02*
X140226142Y-99329618D01*
X140226142Y-99329618D02*
X140321380Y-99329618D01*
X139321380Y-98377238D02*
X139321380Y-98853428D01*
X139321380Y-98853428D02*
X139797571Y-98901047D01*
X139797571Y-98901047D02*
X139749952Y-98853428D01*
X139749952Y-98853428D02*
X139702333Y-98758190D01*
X139702333Y-98758190D02*
X139702333Y-98520095D01*
X139702333Y-98520095D02*
X139749952Y-98424857D01*
X139749952Y-98424857D02*
X139797571Y-98377238D01*
X139797571Y-98377238D02*
X139892809Y-98329619D01*
X139892809Y-98329619D02*
X140130904Y-98329619D01*
X140130904Y-98329619D02*
X140226142Y-98377238D01*
X140226142Y-98377238D02*
X140273761Y-98424857D01*
X140273761Y-98424857D02*
X140321380Y-98520095D01*
X140321380Y-98520095D02*
X140321380Y-98758190D01*
X140321380Y-98758190D02*
X140273761Y-98853428D01*
X140273761Y-98853428D02*
X140226142Y-98901047D01*
X139321380Y-98043904D02*
X140321380Y-97710571D01*
X140321380Y-97710571D02*
X139321380Y-97377238D01*
X75402095Y-96683428D02*
X76164000Y-96683428D01*
X75783047Y-97064380D02*
X75783047Y-96302476D01*
X77116380Y-96064380D02*
X76640190Y-96064380D01*
X76640190Y-96064380D02*
X76592571Y-96540571D01*
X76592571Y-96540571D02*
X76640190Y-96492952D01*
X76640190Y-96492952D02*
X76735428Y-96445333D01*
X76735428Y-96445333D02*
X76973523Y-96445333D01*
X76973523Y-96445333D02*
X77068761Y-96492952D01*
X77068761Y-96492952D02*
X77116380Y-96540571D01*
X77116380Y-96540571D02*
X77163999Y-96635809D01*
X77163999Y-96635809D02*
X77163999Y-96873904D01*
X77163999Y-96873904D02*
X77116380Y-96969142D01*
X77116380Y-96969142D02*
X77068761Y-97016761D01*
X77068761Y-97016761D02*
X76973523Y-97064380D01*
X76973523Y-97064380D02*
X76735428Y-97064380D01*
X76735428Y-97064380D02*
X76640190Y-97016761D01*
X76640190Y-97016761D02*
X76592571Y-96969142D01*
X77449714Y-96064380D02*
X77783047Y-97064380D01*
X77783047Y-97064380D02*
X78116380Y-96064380D01*
X218569380Y-138985714D02*
X218569380Y-139461904D01*
X218569380Y-139461904D02*
X219045571Y-139509523D01*
X219045571Y-139509523D02*
X218997952Y-139461904D01*
X218997952Y-139461904D02*
X218950333Y-139366666D01*
X218950333Y-139366666D02*
X218950333Y-139128571D01*
X218950333Y-139128571D02*
X218997952Y-139033333D01*
X218997952Y-139033333D02*
X219045571Y-138985714D01*
X219045571Y-138985714D02*
X219140809Y-138938095D01*
X219140809Y-138938095D02*
X219378904Y-138938095D01*
X219378904Y-138938095D02*
X219474142Y-138985714D01*
X219474142Y-138985714D02*
X219521761Y-139033333D01*
X219521761Y-139033333D02*
X219569380Y-139128571D01*
X219569380Y-139128571D02*
X219569380Y-139366666D01*
X219569380Y-139366666D02*
X219521761Y-139461904D01*
X219521761Y-139461904D02*
X219474142Y-139509523D01*
X218569380Y-138652380D02*
X219569380Y-138319047D01*
X219569380Y-138319047D02*
X218569380Y-137985714D01*
X222109380Y-138890476D02*
X221633190Y-139223809D01*
X222109380Y-139461904D02*
X221109380Y-139461904D01*
X221109380Y-139461904D02*
X221109380Y-139080952D01*
X221109380Y-139080952D02*
X221157000Y-138985714D01*
X221157000Y-138985714D02*
X221204619Y-138938095D01*
X221204619Y-138938095D02*
X221299857Y-138890476D01*
X221299857Y-138890476D02*
X221442714Y-138890476D01*
X221442714Y-138890476D02*
X221537952Y-138938095D01*
X221537952Y-138938095D02*
X221585571Y-138985714D01*
X221585571Y-138985714D02*
X221633190Y-139080952D01*
X221633190Y-139080952D02*
X221633190Y-139461904D01*
X221109380Y-138557142D02*
X222109380Y-137890476D01*
X221109380Y-137890476D02*
X222109380Y-138557142D01*
X223869238Y-85650380D02*
X224440666Y-85650380D01*
X224154952Y-86650380D02*
X224154952Y-85650380D01*
X224916857Y-86650380D02*
X224821619Y-86602761D01*
X224821619Y-86602761D02*
X224774000Y-86555142D01*
X224774000Y-86555142D02*
X224726381Y-86459904D01*
X224726381Y-86459904D02*
X224726381Y-86174190D01*
X224726381Y-86174190D02*
X224774000Y-86078952D01*
X224774000Y-86078952D02*
X224821619Y-86031333D01*
X224821619Y-86031333D02*
X224916857Y-85983714D01*
X224916857Y-85983714D02*
X225059714Y-85983714D01*
X225059714Y-85983714D02*
X225154952Y-86031333D01*
X225154952Y-86031333D02*
X225202571Y-86078952D01*
X225202571Y-86078952D02*
X225250190Y-86174190D01*
X225250190Y-86174190D02*
X225250190Y-86459904D01*
X225250190Y-86459904D02*
X225202571Y-86555142D01*
X225202571Y-86555142D02*
X225154952Y-86602761D01*
X225154952Y-86602761D02*
X225059714Y-86650380D01*
X225059714Y-86650380D02*
X224916857Y-86650380D01*
X226802571Y-85698000D02*
X226707333Y-85650380D01*
X226707333Y-85650380D02*
X226564476Y-85650380D01*
X226564476Y-85650380D02*
X226421619Y-85698000D01*
X226421619Y-85698000D02*
X226326381Y-85793238D01*
X226326381Y-85793238D02*
X226278762Y-85888476D01*
X226278762Y-85888476D02*
X226231143Y-86078952D01*
X226231143Y-86078952D02*
X226231143Y-86221809D01*
X226231143Y-86221809D02*
X226278762Y-86412285D01*
X226278762Y-86412285D02*
X226326381Y-86507523D01*
X226326381Y-86507523D02*
X226421619Y-86602761D01*
X226421619Y-86602761D02*
X226564476Y-86650380D01*
X226564476Y-86650380D02*
X226659714Y-86650380D01*
X226659714Y-86650380D02*
X226802571Y-86602761D01*
X226802571Y-86602761D02*
X226850190Y-86555142D01*
X226850190Y-86555142D02*
X226850190Y-86221809D01*
X226850190Y-86221809D02*
X226659714Y-86221809D01*
X227278762Y-86650380D02*
X227278762Y-85983714D01*
X227278762Y-85650380D02*
X227231143Y-85698000D01*
X227231143Y-85698000D02*
X227278762Y-85745619D01*
X227278762Y-85745619D02*
X227326381Y-85698000D01*
X227326381Y-85698000D02*
X227278762Y-85650380D01*
X227278762Y-85650380D02*
X227278762Y-85745619D01*
X227754952Y-86650380D02*
X227754952Y-85983714D01*
X227754952Y-86078952D02*
X227802571Y-86031333D01*
X227802571Y-86031333D02*
X227897809Y-85983714D01*
X227897809Y-85983714D02*
X228040666Y-85983714D01*
X228040666Y-85983714D02*
X228135904Y-86031333D01*
X228135904Y-86031333D02*
X228183523Y-86126571D01*
X228183523Y-86126571D02*
X228183523Y-86650380D01*
X228183523Y-86126571D02*
X228231142Y-86031333D01*
X228231142Y-86031333D02*
X228326380Y-85983714D01*
X228326380Y-85983714D02*
X228469237Y-85983714D01*
X228469237Y-85983714D02*
X228564476Y-86031333D01*
X228564476Y-86031333D02*
X228612095Y-86126571D01*
X228612095Y-86126571D02*
X228612095Y-86650380D01*
X229088285Y-86650380D02*
X229088285Y-85650380D01*
X229088285Y-86031333D02*
X229183523Y-85983714D01*
X229183523Y-85983714D02*
X229373999Y-85983714D01*
X229373999Y-85983714D02*
X229469237Y-86031333D01*
X229469237Y-86031333D02*
X229516856Y-86078952D01*
X229516856Y-86078952D02*
X229564475Y-86174190D01*
X229564475Y-86174190D02*
X229564475Y-86459904D01*
X229564475Y-86459904D02*
X229516856Y-86555142D01*
X229516856Y-86555142D02*
X229469237Y-86602761D01*
X229469237Y-86602761D02*
X229373999Y-86650380D01*
X229373999Y-86650380D02*
X229183523Y-86650380D01*
X229183523Y-86650380D02*
X229088285Y-86602761D01*
X230421618Y-86650380D02*
X230421618Y-86126571D01*
X230421618Y-86126571D02*
X230373999Y-86031333D01*
X230373999Y-86031333D02*
X230278761Y-85983714D01*
X230278761Y-85983714D02*
X230088285Y-85983714D01*
X230088285Y-85983714D02*
X229993047Y-86031333D01*
X230421618Y-86602761D02*
X230326380Y-86650380D01*
X230326380Y-86650380D02*
X230088285Y-86650380D01*
X230088285Y-86650380D02*
X229993047Y-86602761D01*
X229993047Y-86602761D02*
X229945428Y-86507523D01*
X229945428Y-86507523D02*
X229945428Y-86412285D01*
X229945428Y-86412285D02*
X229993047Y-86317047D01*
X229993047Y-86317047D02*
X230088285Y-86269428D01*
X230088285Y-86269428D02*
X230326380Y-86269428D01*
X230326380Y-86269428D02*
X230421618Y-86221809D01*
X231040666Y-86650380D02*
X230945428Y-86602761D01*
X230945428Y-86602761D02*
X230897809Y-86507523D01*
X230897809Y-86507523D02*
X230897809Y-85650380D01*
X206994095Y-131400571D02*
X207327428Y-131400571D01*
X207470285Y-131924380D02*
X206994095Y-131924380D01*
X206994095Y-131924380D02*
X206994095Y-130924380D01*
X206994095Y-130924380D02*
X207470285Y-130924380D01*
X208041714Y-131924380D02*
X207946476Y-131876761D01*
X207946476Y-131876761D02*
X207898857Y-131781523D01*
X207898857Y-131781523D02*
X207898857Y-130924380D01*
X208803619Y-131876761D02*
X208708381Y-131924380D01*
X208708381Y-131924380D02*
X208517905Y-131924380D01*
X208517905Y-131924380D02*
X208422667Y-131876761D01*
X208422667Y-131876761D02*
X208375048Y-131781523D01*
X208375048Y-131781523D02*
X208375048Y-131400571D01*
X208375048Y-131400571D02*
X208422667Y-131305333D01*
X208422667Y-131305333D02*
X208517905Y-131257714D01*
X208517905Y-131257714D02*
X208708381Y-131257714D01*
X208708381Y-131257714D02*
X208803619Y-131305333D01*
X208803619Y-131305333D02*
X208851238Y-131400571D01*
X208851238Y-131400571D02*
X208851238Y-131495809D01*
X208851238Y-131495809D02*
X208375048Y-131591047D01*
X209708381Y-131876761D02*
X209613143Y-131924380D01*
X209613143Y-131924380D02*
X209422667Y-131924380D01*
X209422667Y-131924380D02*
X209327429Y-131876761D01*
X209327429Y-131876761D02*
X209279810Y-131829142D01*
X209279810Y-131829142D02*
X209232191Y-131733904D01*
X209232191Y-131733904D02*
X209232191Y-131448190D01*
X209232191Y-131448190D02*
X209279810Y-131352952D01*
X209279810Y-131352952D02*
X209327429Y-131305333D01*
X209327429Y-131305333D02*
X209422667Y-131257714D01*
X209422667Y-131257714D02*
X209613143Y-131257714D01*
X209613143Y-131257714D02*
X209708381Y-131305333D01*
X209994096Y-131257714D02*
X210375048Y-131257714D01*
X210136953Y-130924380D02*
X210136953Y-131781523D01*
X210136953Y-131781523D02*
X210184572Y-131876761D01*
X210184572Y-131876761D02*
X210279810Y-131924380D01*
X210279810Y-131924380D02*
X210375048Y-131924380D01*
X210708382Y-131924380D02*
X210708382Y-131257714D01*
X210708382Y-131448190D02*
X210756001Y-131352952D01*
X210756001Y-131352952D02*
X210803620Y-131305333D01*
X210803620Y-131305333D02*
X210898858Y-131257714D01*
X210898858Y-131257714D02*
X210994096Y-131257714D01*
X211470287Y-131924380D02*
X211375049Y-131876761D01*
X211375049Y-131876761D02*
X211327430Y-131829142D01*
X211327430Y-131829142D02*
X211279811Y-131733904D01*
X211279811Y-131733904D02*
X211279811Y-131448190D01*
X211279811Y-131448190D02*
X211327430Y-131352952D01*
X211327430Y-131352952D02*
X211375049Y-131305333D01*
X211375049Y-131305333D02*
X211470287Y-131257714D01*
X211470287Y-131257714D02*
X211613144Y-131257714D01*
X211613144Y-131257714D02*
X211708382Y-131305333D01*
X211708382Y-131305333D02*
X211756001Y-131352952D01*
X211756001Y-131352952D02*
X211803620Y-131448190D01*
X211803620Y-131448190D02*
X211803620Y-131733904D01*
X211803620Y-131733904D02*
X211756001Y-131829142D01*
X211756001Y-131829142D02*
X211708382Y-131876761D01*
X211708382Y-131876761D02*
X211613144Y-131924380D01*
X211613144Y-131924380D02*
X211470287Y-131924380D01*
X212232192Y-131257714D02*
X212232192Y-131924380D01*
X212232192Y-131352952D02*
X212279811Y-131305333D01*
X212279811Y-131305333D02*
X212375049Y-131257714D01*
X212375049Y-131257714D02*
X212517906Y-131257714D01*
X212517906Y-131257714D02*
X212613144Y-131305333D01*
X212613144Y-131305333D02*
X212660763Y-131400571D01*
X212660763Y-131400571D02*
X212660763Y-131924380D01*
X213136954Y-131924380D02*
X213136954Y-131257714D01*
X213136954Y-130924380D02*
X213089335Y-130972000D01*
X213089335Y-130972000D02*
X213136954Y-131019619D01*
X213136954Y-131019619D02*
X213184573Y-130972000D01*
X213184573Y-130972000D02*
X213136954Y-130924380D01*
X213136954Y-130924380D02*
X213136954Y-131019619D01*
X214041715Y-131876761D02*
X213946477Y-131924380D01*
X213946477Y-131924380D02*
X213756001Y-131924380D01*
X213756001Y-131924380D02*
X213660763Y-131876761D01*
X213660763Y-131876761D02*
X213613144Y-131829142D01*
X213613144Y-131829142D02*
X213565525Y-131733904D01*
X213565525Y-131733904D02*
X213565525Y-131448190D01*
X213565525Y-131448190D02*
X213613144Y-131352952D01*
X213613144Y-131352952D02*
X213660763Y-131305333D01*
X213660763Y-131305333D02*
X213756001Y-131257714D01*
X213756001Y-131257714D02*
X213946477Y-131257714D01*
X213946477Y-131257714D02*
X214041715Y-131305333D01*
X214422668Y-131876761D02*
X214517906Y-131924380D01*
X214517906Y-131924380D02*
X214708382Y-131924380D01*
X214708382Y-131924380D02*
X214803620Y-131876761D01*
X214803620Y-131876761D02*
X214851239Y-131781523D01*
X214851239Y-131781523D02*
X214851239Y-131733904D01*
X214851239Y-131733904D02*
X214803620Y-131638666D01*
X214803620Y-131638666D02*
X214708382Y-131591047D01*
X214708382Y-131591047D02*
X214565525Y-131591047D01*
X214565525Y-131591047D02*
X214470287Y-131543428D01*
X214470287Y-131543428D02*
X214422668Y-131448190D01*
X214422668Y-131448190D02*
X214422668Y-131400571D01*
X214422668Y-131400571D02*
X214470287Y-131305333D01*
X214470287Y-131305333D02*
X214565525Y-131257714D01*
X214565525Y-131257714D02*
X214708382Y-131257714D01*
X214708382Y-131257714D02*
X214803620Y-131305333D01*
X216213144Y-131400571D02*
X216356001Y-131448190D01*
X216356001Y-131448190D02*
X216403620Y-131495809D01*
X216403620Y-131495809D02*
X216451239Y-131591047D01*
X216451239Y-131591047D02*
X216451239Y-131733904D01*
X216451239Y-131733904D02*
X216403620Y-131829142D01*
X216403620Y-131829142D02*
X216356001Y-131876761D01*
X216356001Y-131876761D02*
X216260763Y-131924380D01*
X216260763Y-131924380D02*
X215879811Y-131924380D01*
X215879811Y-131924380D02*
X215879811Y-130924380D01*
X215879811Y-130924380D02*
X216213144Y-130924380D01*
X216213144Y-130924380D02*
X216308382Y-130972000D01*
X216308382Y-130972000D02*
X216356001Y-131019619D01*
X216356001Y-131019619D02*
X216403620Y-131114857D01*
X216403620Y-131114857D02*
X216403620Y-131210095D01*
X216403620Y-131210095D02*
X216356001Y-131305333D01*
X216356001Y-131305333D02*
X216308382Y-131352952D01*
X216308382Y-131352952D02*
X216213144Y-131400571D01*
X216213144Y-131400571D02*
X215879811Y-131400571D01*
X217308382Y-131924380D02*
X217308382Y-131400571D01*
X217308382Y-131400571D02*
X217260763Y-131305333D01*
X217260763Y-131305333D02*
X217165525Y-131257714D01*
X217165525Y-131257714D02*
X216975049Y-131257714D01*
X216975049Y-131257714D02*
X216879811Y-131305333D01*
X217308382Y-131876761D02*
X217213144Y-131924380D01*
X217213144Y-131924380D02*
X216975049Y-131924380D01*
X216975049Y-131924380D02*
X216879811Y-131876761D01*
X216879811Y-131876761D02*
X216832192Y-131781523D01*
X216832192Y-131781523D02*
X216832192Y-131686285D01*
X216832192Y-131686285D02*
X216879811Y-131591047D01*
X216879811Y-131591047D02*
X216975049Y-131543428D01*
X216975049Y-131543428D02*
X217213144Y-131543428D01*
X217213144Y-131543428D02*
X217308382Y-131495809D01*
X217689335Y-131257714D02*
X217927430Y-131924380D01*
X218165525Y-131257714D02*
X217927430Y-131924380D01*
X217927430Y-131924380D02*
X217832192Y-132162476D01*
X217832192Y-132162476D02*
X217784573Y-132210095D01*
X217784573Y-132210095D02*
X217689335Y-132257714D01*
X219717906Y-131924380D02*
X219384573Y-131448190D01*
X219146478Y-131924380D02*
X219146478Y-130924380D01*
X219146478Y-130924380D02*
X219527430Y-130924380D01*
X219527430Y-130924380D02*
X219622668Y-130972000D01*
X219622668Y-130972000D02*
X219670287Y-131019619D01*
X219670287Y-131019619D02*
X219717906Y-131114857D01*
X219717906Y-131114857D02*
X219717906Y-131257714D01*
X219717906Y-131257714D02*
X219670287Y-131352952D01*
X219670287Y-131352952D02*
X219622668Y-131400571D01*
X219622668Y-131400571D02*
X219527430Y-131448190D01*
X219527430Y-131448190D02*
X219146478Y-131448190D01*
X220146478Y-131924380D02*
X220146478Y-131257714D01*
X220146478Y-130924380D02*
X220098859Y-130972000D01*
X220098859Y-130972000D02*
X220146478Y-131019619D01*
X220146478Y-131019619D02*
X220194097Y-130972000D01*
X220194097Y-130972000D02*
X220146478Y-130924380D01*
X220146478Y-130924380D02*
X220146478Y-131019619D01*
X221051239Y-131257714D02*
X221051239Y-132067238D01*
X221051239Y-132067238D02*
X221003620Y-132162476D01*
X221003620Y-132162476D02*
X220956001Y-132210095D01*
X220956001Y-132210095D02*
X220860763Y-132257714D01*
X220860763Y-132257714D02*
X220717906Y-132257714D01*
X220717906Y-132257714D02*
X220622668Y-132210095D01*
X221051239Y-131876761D02*
X220956001Y-131924380D01*
X220956001Y-131924380D02*
X220765525Y-131924380D01*
X220765525Y-131924380D02*
X220670287Y-131876761D01*
X220670287Y-131876761D02*
X220622668Y-131829142D01*
X220622668Y-131829142D02*
X220575049Y-131733904D01*
X220575049Y-131733904D02*
X220575049Y-131448190D01*
X220575049Y-131448190D02*
X220622668Y-131352952D01*
X220622668Y-131352952D02*
X220670287Y-131305333D01*
X220670287Y-131305333D02*
X220765525Y-131257714D01*
X220765525Y-131257714D02*
X220956001Y-131257714D01*
X220956001Y-131257714D02*
X221051239Y-131305333D01*
X221527430Y-131924380D02*
X221527430Y-130924380D01*
X221956001Y-131924380D02*
X221956001Y-131400571D01*
X221956001Y-131400571D02*
X221908382Y-131305333D01*
X221908382Y-131305333D02*
X221813144Y-131257714D01*
X221813144Y-131257714D02*
X221670287Y-131257714D01*
X221670287Y-131257714D02*
X221575049Y-131305333D01*
X221575049Y-131305333D02*
X221527430Y-131352952D01*
X222289335Y-131257714D02*
X222670287Y-131257714D01*
X222432192Y-130924380D02*
X222432192Y-131781523D01*
X222432192Y-131781523D02*
X222479811Y-131876761D01*
X222479811Y-131876761D02*
X222575049Y-131924380D01*
X222575049Y-131924380D02*
X222670287Y-131924380D01*
X223603621Y-131924380D02*
X223603621Y-130924380D01*
X223603621Y-130924380D02*
X223984573Y-130924380D01*
X223984573Y-130924380D02*
X224079811Y-130972000D01*
X224079811Y-130972000D02*
X224127430Y-131019619D01*
X224127430Y-131019619D02*
X224175049Y-131114857D01*
X224175049Y-131114857D02*
X224175049Y-131257714D01*
X224175049Y-131257714D02*
X224127430Y-131352952D01*
X224127430Y-131352952D02*
X224079811Y-131400571D01*
X224079811Y-131400571D02*
X223984573Y-131448190D01*
X223984573Y-131448190D02*
X223603621Y-131448190D01*
X225032192Y-131924380D02*
X225032192Y-131400571D01*
X225032192Y-131400571D02*
X224984573Y-131305333D01*
X224984573Y-131305333D02*
X224889335Y-131257714D01*
X224889335Y-131257714D02*
X224698859Y-131257714D01*
X224698859Y-131257714D02*
X224603621Y-131305333D01*
X225032192Y-131876761D02*
X224936954Y-131924380D01*
X224936954Y-131924380D02*
X224698859Y-131924380D01*
X224698859Y-131924380D02*
X224603621Y-131876761D01*
X224603621Y-131876761D02*
X224556002Y-131781523D01*
X224556002Y-131781523D02*
X224556002Y-131686285D01*
X224556002Y-131686285D02*
X224603621Y-131591047D01*
X224603621Y-131591047D02*
X224698859Y-131543428D01*
X224698859Y-131543428D02*
X224936954Y-131543428D01*
X224936954Y-131543428D02*
X225032192Y-131495809D01*
X225508383Y-131257714D02*
X225508383Y-131924380D01*
X225508383Y-131352952D02*
X225556002Y-131305333D01*
X225556002Y-131305333D02*
X225651240Y-131257714D01*
X225651240Y-131257714D02*
X225794097Y-131257714D01*
X225794097Y-131257714D02*
X225889335Y-131305333D01*
X225889335Y-131305333D02*
X225936954Y-131400571D01*
X225936954Y-131400571D02*
X225936954Y-131924380D01*
X226794097Y-131876761D02*
X226698859Y-131924380D01*
X226698859Y-131924380D02*
X226508383Y-131924380D01*
X226508383Y-131924380D02*
X226413145Y-131876761D01*
X226413145Y-131876761D02*
X226365526Y-131781523D01*
X226365526Y-131781523D02*
X226365526Y-131400571D01*
X226365526Y-131400571D02*
X226413145Y-131305333D01*
X226413145Y-131305333D02*
X226508383Y-131257714D01*
X226508383Y-131257714D02*
X226698859Y-131257714D01*
X226698859Y-131257714D02*
X226794097Y-131305333D01*
X226794097Y-131305333D02*
X226841716Y-131400571D01*
X226841716Y-131400571D02*
X226841716Y-131495809D01*
X226841716Y-131495809D02*
X226365526Y-131591047D01*
X227413145Y-131924380D02*
X227317907Y-131876761D01*
X227317907Y-131876761D02*
X227270288Y-131781523D01*
X227270288Y-131781523D02*
X227270288Y-130924380D01*
X206898857Y-132877714D02*
X207136952Y-133544380D01*
X207136952Y-133544380D02*
X207375047Y-132877714D01*
X208279809Y-133544380D02*
X207708381Y-133544380D01*
X207994095Y-133544380D02*
X207994095Y-132544380D01*
X207994095Y-132544380D02*
X207898857Y-132687238D01*
X207898857Y-132687238D02*
X207803619Y-132782476D01*
X207803619Y-132782476D02*
X207708381Y-132830095D01*
X206946476Y-134878666D02*
X207422666Y-134878666D01*
X206851238Y-135164380D02*
X207184571Y-134164380D01*
X207184571Y-134164380D02*
X207517904Y-135164380D01*
X207994095Y-135164380D02*
X207898857Y-135116761D01*
X207898857Y-135116761D02*
X207851238Y-135021523D01*
X207851238Y-135021523D02*
X207851238Y-134164380D01*
X208803619Y-135164380D02*
X208803619Y-134640571D01*
X208803619Y-134640571D02*
X208756000Y-134545333D01*
X208756000Y-134545333D02*
X208660762Y-134497714D01*
X208660762Y-134497714D02*
X208470286Y-134497714D01*
X208470286Y-134497714D02*
X208375048Y-134545333D01*
X208803619Y-135116761D02*
X208708381Y-135164380D01*
X208708381Y-135164380D02*
X208470286Y-135164380D01*
X208470286Y-135164380D02*
X208375048Y-135116761D01*
X208375048Y-135116761D02*
X208327429Y-135021523D01*
X208327429Y-135021523D02*
X208327429Y-134926285D01*
X208327429Y-134926285D02*
X208375048Y-134831047D01*
X208375048Y-134831047D02*
X208470286Y-134783428D01*
X208470286Y-134783428D02*
X208708381Y-134783428D01*
X208708381Y-134783428D02*
X208803619Y-134735809D01*
X209279810Y-134497714D02*
X209279810Y-135164380D01*
X209279810Y-134592952D02*
X209327429Y-134545333D01*
X209327429Y-134545333D02*
X209422667Y-134497714D01*
X209422667Y-134497714D02*
X209565524Y-134497714D01*
X209565524Y-134497714D02*
X209660762Y-134545333D01*
X209660762Y-134545333D02*
X209708381Y-134640571D01*
X209708381Y-134640571D02*
X209708381Y-135164380D01*
X210784572Y-135164380D02*
X210784572Y-134164380D01*
X210784572Y-134640571D02*
X211356000Y-134640571D01*
X211356000Y-135164380D02*
X211356000Y-134164380D01*
X211784572Y-135116761D02*
X211879810Y-135164380D01*
X211879810Y-135164380D02*
X212070286Y-135164380D01*
X212070286Y-135164380D02*
X212165524Y-135116761D01*
X212165524Y-135116761D02*
X212213143Y-135021523D01*
X212213143Y-135021523D02*
X212213143Y-134973904D01*
X212213143Y-134973904D02*
X212165524Y-134878666D01*
X212165524Y-134878666D02*
X212070286Y-134831047D01*
X212070286Y-134831047D02*
X211927429Y-134831047D01*
X211927429Y-134831047D02*
X211832191Y-134783428D01*
X211832191Y-134783428D02*
X211784572Y-134688190D01*
X211784572Y-134688190D02*
X211784572Y-134640571D01*
X211784572Y-134640571D02*
X211832191Y-134545333D01*
X211832191Y-134545333D02*
X211927429Y-134497714D01*
X211927429Y-134497714D02*
X212070286Y-134497714D01*
X212070286Y-134497714D02*
X212165524Y-134545333D01*
X213070286Y-134497714D02*
X213070286Y-135164380D01*
X212641715Y-134497714D02*
X212641715Y-135021523D01*
X212641715Y-135021523D02*
X212689334Y-135116761D01*
X212689334Y-135116761D02*
X212784572Y-135164380D01*
X212784572Y-135164380D02*
X212927429Y-135164380D01*
X212927429Y-135164380D02*
X213022667Y-135116761D01*
X213022667Y-135116761D02*
X213070286Y-135069142D01*
X216934142Y-138890476D02*
X216981761Y-138938095D01*
X216981761Y-138938095D02*
X217029380Y-139080952D01*
X217029380Y-139080952D02*
X217029380Y-139176190D01*
X217029380Y-139176190D02*
X216981761Y-139319047D01*
X216981761Y-139319047D02*
X216886523Y-139414285D01*
X216886523Y-139414285D02*
X216791285Y-139461904D01*
X216791285Y-139461904D02*
X216600809Y-139509523D01*
X216600809Y-139509523D02*
X216457952Y-139509523D01*
X216457952Y-139509523D02*
X216267476Y-139461904D01*
X216267476Y-139461904D02*
X216172238Y-139414285D01*
X216172238Y-139414285D02*
X216077000Y-139319047D01*
X216077000Y-139319047D02*
X216029380Y-139176190D01*
X216029380Y-139176190D02*
X216029380Y-139080952D01*
X216029380Y-139080952D02*
X216077000Y-138938095D01*
X216077000Y-138938095D02*
X216124619Y-138890476D01*
X216029380Y-138604761D02*
X216029380Y-138033333D01*
X217029380Y-138319047D02*
X216029380Y-138319047D01*
X216981761Y-137747618D02*
X217029380Y-137604761D01*
X217029380Y-137604761D02*
X217029380Y-137366666D01*
X217029380Y-137366666D02*
X216981761Y-137271428D01*
X216981761Y-137271428D02*
X216934142Y-137223809D01*
X216934142Y-137223809D02*
X216838904Y-137176190D01*
X216838904Y-137176190D02*
X216743666Y-137176190D01*
X216743666Y-137176190D02*
X216648428Y-137223809D01*
X216648428Y-137223809D02*
X216600809Y-137271428D01*
X216600809Y-137271428D02*
X216553190Y-137366666D01*
X216553190Y-137366666D02*
X216505571Y-137557142D01*
X216505571Y-137557142D02*
X216457952Y-137652380D01*
X216457952Y-137652380D02*
X216410333Y-137699999D01*
X216410333Y-137699999D02*
X216315095Y-137747618D01*
X216315095Y-137747618D02*
X216219857Y-137747618D01*
X216219857Y-137747618D02*
X216124619Y-137699999D01*
X216124619Y-137699999D02*
X216077000Y-137652380D01*
X216077000Y-137652380D02*
X216029380Y-137557142D01*
X216029380Y-137557142D02*
X216029380Y-137319047D01*
X216029380Y-137319047D02*
X216077000Y-137176190D01*
X227189380Y-138890476D02*
X226713190Y-139223809D01*
X227189380Y-139461904D02*
X226189380Y-139461904D01*
X226189380Y-139461904D02*
X226189380Y-139080952D01*
X226189380Y-139080952D02*
X226237000Y-138985714D01*
X226237000Y-138985714D02*
X226284619Y-138938095D01*
X226284619Y-138938095D02*
X226379857Y-138890476D01*
X226379857Y-138890476D02*
X226522714Y-138890476D01*
X226522714Y-138890476D02*
X226617952Y-138938095D01*
X226617952Y-138938095D02*
X226665571Y-138985714D01*
X226665571Y-138985714D02*
X226713190Y-139080952D01*
X226713190Y-139080952D02*
X226713190Y-139461904D01*
X226189380Y-138604761D02*
X226189380Y-138033333D01*
X227189380Y-138319047D02*
X226189380Y-138319047D01*
X227141761Y-137747618D02*
X227189380Y-137604761D01*
X227189380Y-137604761D02*
X227189380Y-137366666D01*
X227189380Y-137366666D02*
X227141761Y-137271428D01*
X227141761Y-137271428D02*
X227094142Y-137223809D01*
X227094142Y-137223809D02*
X226998904Y-137176190D01*
X226998904Y-137176190D02*
X226903666Y-137176190D01*
X226903666Y-137176190D02*
X226808428Y-137223809D01*
X226808428Y-137223809D02*
X226760809Y-137271428D01*
X226760809Y-137271428D02*
X226713190Y-137366666D01*
X226713190Y-137366666D02*
X226665571Y-137557142D01*
X226665571Y-137557142D02*
X226617952Y-137652380D01*
X226617952Y-137652380D02*
X226570333Y-137699999D01*
X226570333Y-137699999D02*
X226475095Y-137747618D01*
X226475095Y-137747618D02*
X226379857Y-137747618D01*
X226379857Y-137747618D02*
X226284619Y-137699999D01*
X226284619Y-137699999D02*
X226237000Y-137652380D01*
X226237000Y-137652380D02*
X226189380Y-137557142D01*
X226189380Y-137557142D02*
X226189380Y-137319047D01*
X226189380Y-137319047D02*
X226237000Y-137176190D01*
X224012095Y-104222571D02*
X224345428Y-104222571D01*
X224488285Y-104746380D02*
X224012095Y-104746380D01*
X224012095Y-104746380D02*
X224012095Y-103746380D01*
X224012095Y-103746380D02*
X224488285Y-103746380D01*
X224821619Y-104746380D02*
X225345428Y-104079714D01*
X224821619Y-104079714D02*
X225345428Y-104746380D01*
X225583524Y-104079714D02*
X225964476Y-104079714D01*
X225726381Y-103746380D02*
X225726381Y-104603523D01*
X225726381Y-104603523D02*
X225774000Y-104698761D01*
X225774000Y-104698761D02*
X225869238Y-104746380D01*
X225869238Y-104746380D02*
X225964476Y-104746380D01*
X226297810Y-104746380D02*
X226297810Y-104079714D01*
X226297810Y-104270190D02*
X226345429Y-104174952D01*
X226345429Y-104174952D02*
X226393048Y-104127333D01*
X226393048Y-104127333D02*
X226488286Y-104079714D01*
X226488286Y-104079714D02*
X226583524Y-104079714D01*
X227345429Y-104746380D02*
X227345429Y-104222571D01*
X227345429Y-104222571D02*
X227297810Y-104127333D01*
X227297810Y-104127333D02*
X227202572Y-104079714D01*
X227202572Y-104079714D02*
X227012096Y-104079714D01*
X227012096Y-104079714D02*
X226916858Y-104127333D01*
X227345429Y-104698761D02*
X227250191Y-104746380D01*
X227250191Y-104746380D02*
X227012096Y-104746380D01*
X227012096Y-104746380D02*
X226916858Y-104698761D01*
X226916858Y-104698761D02*
X226869239Y-104603523D01*
X226869239Y-104603523D02*
X226869239Y-104508285D01*
X226869239Y-104508285D02*
X226916858Y-104413047D01*
X226916858Y-104413047D02*
X227012096Y-104365428D01*
X227012096Y-104365428D02*
X227250191Y-104365428D01*
X227250191Y-104365428D02*
X227345429Y-104317809D01*
X228421620Y-104746380D02*
X228421620Y-104079714D01*
X228421620Y-103746380D02*
X228374001Y-103794000D01*
X228374001Y-103794000D02*
X228421620Y-103841619D01*
X228421620Y-103841619D02*
X228469239Y-103794000D01*
X228469239Y-103794000D02*
X228421620Y-103746380D01*
X228421620Y-103746380D02*
X228421620Y-103841619D01*
X228897810Y-104079714D02*
X228897810Y-104746380D01*
X228897810Y-104174952D02*
X228945429Y-104127333D01*
X228945429Y-104127333D02*
X229040667Y-104079714D01*
X229040667Y-104079714D02*
X229183524Y-104079714D01*
X229183524Y-104079714D02*
X229278762Y-104127333D01*
X229278762Y-104127333D02*
X229326381Y-104222571D01*
X229326381Y-104222571D02*
X229326381Y-104746380D01*
X224440666Y-106318761D02*
X224345428Y-106366380D01*
X224345428Y-106366380D02*
X224154952Y-106366380D01*
X224154952Y-106366380D02*
X224059714Y-106318761D01*
X224059714Y-106318761D02*
X224012095Y-106271142D01*
X224012095Y-106271142D02*
X223964476Y-106175904D01*
X223964476Y-106175904D02*
X223964476Y-105890190D01*
X223964476Y-105890190D02*
X224012095Y-105794952D01*
X224012095Y-105794952D02*
X224059714Y-105747333D01*
X224059714Y-105747333D02*
X224154952Y-105699714D01*
X224154952Y-105699714D02*
X224345428Y-105699714D01*
X224345428Y-105699714D02*
X224440666Y-105747333D01*
X225297809Y-106366380D02*
X225297809Y-105842571D01*
X225297809Y-105842571D02*
X225250190Y-105747333D01*
X225250190Y-105747333D02*
X225154952Y-105699714D01*
X225154952Y-105699714D02*
X224964476Y-105699714D01*
X224964476Y-105699714D02*
X224869238Y-105747333D01*
X225297809Y-106318761D02*
X225202571Y-106366380D01*
X225202571Y-106366380D02*
X224964476Y-106366380D01*
X224964476Y-106366380D02*
X224869238Y-106318761D01*
X224869238Y-106318761D02*
X224821619Y-106223523D01*
X224821619Y-106223523D02*
X224821619Y-106128285D01*
X224821619Y-106128285D02*
X224869238Y-106033047D01*
X224869238Y-106033047D02*
X224964476Y-105985428D01*
X224964476Y-105985428D02*
X225202571Y-105985428D01*
X225202571Y-105985428D02*
X225297809Y-105937809D01*
X225726381Y-106318761D02*
X225821619Y-106366380D01*
X225821619Y-106366380D02*
X226012095Y-106366380D01*
X226012095Y-106366380D02*
X226107333Y-106318761D01*
X226107333Y-106318761D02*
X226154952Y-106223523D01*
X226154952Y-106223523D02*
X226154952Y-106175904D01*
X226154952Y-106175904D02*
X226107333Y-106080666D01*
X226107333Y-106080666D02*
X226012095Y-106033047D01*
X226012095Y-106033047D02*
X225869238Y-106033047D01*
X225869238Y-106033047D02*
X225774000Y-105985428D01*
X225774000Y-105985428D02*
X225726381Y-105890190D01*
X225726381Y-105890190D02*
X225726381Y-105842571D01*
X225726381Y-105842571D02*
X225774000Y-105747333D01*
X225774000Y-105747333D02*
X225869238Y-105699714D01*
X225869238Y-105699714D02*
X226012095Y-105699714D01*
X226012095Y-105699714D02*
X226107333Y-105747333D01*
X226964476Y-106318761D02*
X226869238Y-106366380D01*
X226869238Y-106366380D02*
X226678762Y-106366380D01*
X226678762Y-106366380D02*
X226583524Y-106318761D01*
X226583524Y-106318761D02*
X226535905Y-106223523D01*
X226535905Y-106223523D02*
X226535905Y-105842571D01*
X226535905Y-105842571D02*
X226583524Y-105747333D01*
X226583524Y-105747333D02*
X226678762Y-105699714D01*
X226678762Y-105699714D02*
X226869238Y-105699714D01*
X226869238Y-105699714D02*
X226964476Y-105747333D01*
X226964476Y-105747333D02*
X227012095Y-105842571D01*
X227012095Y-105842571D02*
X227012095Y-105937809D01*
X227012095Y-105937809D02*
X226535905Y-106033047D01*
X227945429Y-105699714D02*
X228135905Y-106366380D01*
X228135905Y-106366380D02*
X228326381Y-105890190D01*
X228326381Y-105890190D02*
X228516857Y-106366380D01*
X228516857Y-106366380D02*
X228707333Y-105699714D01*
X229469238Y-106318761D02*
X229374000Y-106366380D01*
X229374000Y-106366380D02*
X229183524Y-106366380D01*
X229183524Y-106366380D02*
X229088286Y-106318761D01*
X229088286Y-106318761D02*
X229040667Y-106223523D01*
X229040667Y-106223523D02*
X229040667Y-105842571D01*
X229040667Y-105842571D02*
X229088286Y-105747333D01*
X229088286Y-105747333D02*
X229183524Y-105699714D01*
X229183524Y-105699714D02*
X229374000Y-105699714D01*
X229374000Y-105699714D02*
X229469238Y-105747333D01*
X229469238Y-105747333D02*
X229516857Y-105842571D01*
X229516857Y-105842571D02*
X229516857Y-105937809D01*
X229516857Y-105937809D02*
X229040667Y-106033047D01*
X223869238Y-107319714D02*
X224250190Y-107319714D01*
X224012095Y-107986380D02*
X224012095Y-107129238D01*
X224012095Y-107129238D02*
X224059714Y-107034000D01*
X224059714Y-107034000D02*
X224154952Y-106986380D01*
X224154952Y-106986380D02*
X224250190Y-106986380D01*
X225012095Y-107319714D02*
X225012095Y-107986380D01*
X224583524Y-107319714D02*
X224583524Y-107843523D01*
X224583524Y-107843523D02*
X224631143Y-107938761D01*
X224631143Y-107938761D02*
X224726381Y-107986380D01*
X224726381Y-107986380D02*
X224869238Y-107986380D01*
X224869238Y-107986380D02*
X224964476Y-107938761D01*
X224964476Y-107938761D02*
X225012095Y-107891142D01*
X225916857Y-107938761D02*
X225821619Y-107986380D01*
X225821619Y-107986380D02*
X225631143Y-107986380D01*
X225631143Y-107986380D02*
X225535905Y-107938761D01*
X225535905Y-107938761D02*
X225488286Y-107891142D01*
X225488286Y-107891142D02*
X225440667Y-107795904D01*
X225440667Y-107795904D02*
X225440667Y-107510190D01*
X225440667Y-107510190D02*
X225488286Y-107414952D01*
X225488286Y-107414952D02*
X225535905Y-107367333D01*
X225535905Y-107367333D02*
X225631143Y-107319714D01*
X225631143Y-107319714D02*
X225821619Y-107319714D01*
X225821619Y-107319714D02*
X225916857Y-107367333D01*
X226345429Y-107986380D02*
X226345429Y-106986380D01*
X226440667Y-107605428D02*
X226726381Y-107986380D01*
X226726381Y-107319714D02*
X226345429Y-107700666D01*
X228183524Y-107319714D02*
X228183524Y-107986380D01*
X227754953Y-107319714D02*
X227754953Y-107843523D01*
X227754953Y-107843523D02*
X227802572Y-107938761D01*
X227802572Y-107938761D02*
X227897810Y-107986380D01*
X227897810Y-107986380D02*
X228040667Y-107986380D01*
X228040667Y-107986380D02*
X228135905Y-107938761D01*
X228135905Y-107938761D02*
X228183524Y-107891142D01*
X228659715Y-107319714D02*
X228659715Y-108319714D01*
X228659715Y-107367333D02*
X228754953Y-107319714D01*
X228754953Y-107319714D02*
X228945429Y-107319714D01*
X228945429Y-107319714D02*
X229040667Y-107367333D01*
X229040667Y-107367333D02*
X229088286Y-107414952D01*
X229088286Y-107414952D02*
X229135905Y-107510190D01*
X229135905Y-107510190D02*
X229135905Y-107795904D01*
X229135905Y-107795904D02*
X229088286Y-107891142D01*
X229088286Y-107891142D02*
X229040667Y-107938761D01*
X229040667Y-107938761D02*
X228945429Y-107986380D01*
X228945429Y-107986380D02*
X228754953Y-107986380D01*
X228754953Y-107986380D02*
X228659715Y-107938761D01*
X142986095Y-112508428D02*
X143748000Y-112508428D01*
X144557523Y-112365571D02*
X144700380Y-112413190D01*
X144700380Y-112413190D02*
X144747999Y-112460809D01*
X144747999Y-112460809D02*
X144795618Y-112556047D01*
X144795618Y-112556047D02*
X144795618Y-112698904D01*
X144795618Y-112698904D02*
X144747999Y-112794142D01*
X144747999Y-112794142D02*
X144700380Y-112841761D01*
X144700380Y-112841761D02*
X144605142Y-112889380D01*
X144605142Y-112889380D02*
X144224190Y-112889380D01*
X144224190Y-112889380D02*
X144224190Y-111889380D01*
X144224190Y-111889380D02*
X144557523Y-111889380D01*
X144557523Y-111889380D02*
X144652761Y-111937000D01*
X144652761Y-111937000D02*
X144700380Y-111984619D01*
X144700380Y-111984619D02*
X144747999Y-112079857D01*
X144747999Y-112079857D02*
X144747999Y-112175095D01*
X144747999Y-112175095D02*
X144700380Y-112270333D01*
X144700380Y-112270333D02*
X144652761Y-112317952D01*
X144652761Y-112317952D02*
X144557523Y-112365571D01*
X144557523Y-112365571D02*
X144224190Y-112365571D01*
X145176571Y-112603666D02*
X145652761Y-112603666D01*
X145081333Y-112889380D02*
X145414666Y-111889380D01*
X145414666Y-111889380D02*
X145747999Y-112889380D01*
X145938476Y-111889380D02*
X146509904Y-111889380D01*
X146224190Y-112889380D02*
X146224190Y-111889380D01*
X146700381Y-111889380D02*
X147271809Y-111889380D01*
X146986095Y-112889380D02*
X146986095Y-111889380D01*
X213537000Y-138938095D02*
X213489380Y-139033333D01*
X213489380Y-139033333D02*
X213489380Y-139176190D01*
X213489380Y-139176190D02*
X213537000Y-139319047D01*
X213537000Y-139319047D02*
X213632238Y-139414285D01*
X213632238Y-139414285D02*
X213727476Y-139461904D01*
X213727476Y-139461904D02*
X213917952Y-139509523D01*
X213917952Y-139509523D02*
X214060809Y-139509523D01*
X214060809Y-139509523D02*
X214251285Y-139461904D01*
X214251285Y-139461904D02*
X214346523Y-139414285D01*
X214346523Y-139414285D02*
X214441761Y-139319047D01*
X214441761Y-139319047D02*
X214489380Y-139176190D01*
X214489380Y-139176190D02*
X214489380Y-139080952D01*
X214489380Y-139080952D02*
X214441761Y-138938095D01*
X214441761Y-138938095D02*
X214394142Y-138890476D01*
X214394142Y-138890476D02*
X214060809Y-138890476D01*
X214060809Y-138890476D02*
X214060809Y-139080952D01*
X214489380Y-138461904D02*
X213489380Y-138461904D01*
X213489380Y-138461904D02*
X214489380Y-137890476D01*
X214489380Y-137890476D02*
X213489380Y-137890476D01*
X214489380Y-137414285D02*
X213489380Y-137414285D01*
X213489380Y-137414285D02*
X213489380Y-137176190D01*
X213489380Y-137176190D02*
X213537000Y-137033333D01*
X213537000Y-137033333D02*
X213632238Y-136938095D01*
X213632238Y-136938095D02*
X213727476Y-136890476D01*
X213727476Y-136890476D02*
X213917952Y-136842857D01*
X213917952Y-136842857D02*
X214060809Y-136842857D01*
X214060809Y-136842857D02*
X214251285Y-136890476D01*
X214251285Y-136890476D02*
X214346523Y-136938095D01*
X214346523Y-136938095D02*
X214441761Y-137033333D01*
X214441761Y-137033333D02*
X214489380Y-137176190D01*
X214489380Y-137176190D02*
X214489380Y-137414285D01*
X223869238Y-94698380D02*
X224440666Y-94698380D01*
X224154952Y-95698380D02*
X224154952Y-94698380D01*
X224916857Y-95698380D02*
X224821619Y-95650761D01*
X224821619Y-95650761D02*
X224774000Y-95603142D01*
X224774000Y-95603142D02*
X224726381Y-95507904D01*
X224726381Y-95507904D02*
X224726381Y-95222190D01*
X224726381Y-95222190D02*
X224774000Y-95126952D01*
X224774000Y-95126952D02*
X224821619Y-95079333D01*
X224821619Y-95079333D02*
X224916857Y-95031714D01*
X224916857Y-95031714D02*
X225059714Y-95031714D01*
X225059714Y-95031714D02*
X225154952Y-95079333D01*
X225154952Y-95079333D02*
X225202571Y-95126952D01*
X225202571Y-95126952D02*
X225250190Y-95222190D01*
X225250190Y-95222190D02*
X225250190Y-95507904D01*
X225250190Y-95507904D02*
X225202571Y-95603142D01*
X225202571Y-95603142D02*
X225154952Y-95650761D01*
X225154952Y-95650761D02*
X225059714Y-95698380D01*
X225059714Y-95698380D02*
X224916857Y-95698380D01*
X226278762Y-95698380D02*
X226278762Y-94698380D01*
X226278762Y-94698380D02*
X226659714Y-94698380D01*
X226659714Y-94698380D02*
X226754952Y-94746000D01*
X226754952Y-94746000D02*
X226802571Y-94793619D01*
X226802571Y-94793619D02*
X226850190Y-94888857D01*
X226850190Y-94888857D02*
X226850190Y-95031714D01*
X226850190Y-95031714D02*
X226802571Y-95126952D01*
X226802571Y-95126952D02*
X226754952Y-95174571D01*
X226754952Y-95174571D02*
X226659714Y-95222190D01*
X226659714Y-95222190D02*
X226278762Y-95222190D01*
X227469238Y-94698380D02*
X227659714Y-94698380D01*
X227659714Y-94698380D02*
X227754952Y-94746000D01*
X227754952Y-94746000D02*
X227850190Y-94841238D01*
X227850190Y-94841238D02*
X227897809Y-95031714D01*
X227897809Y-95031714D02*
X227897809Y-95365047D01*
X227897809Y-95365047D02*
X227850190Y-95555523D01*
X227850190Y-95555523D02*
X227754952Y-95650761D01*
X227754952Y-95650761D02*
X227659714Y-95698380D01*
X227659714Y-95698380D02*
X227469238Y-95698380D01*
X227469238Y-95698380D02*
X227374000Y-95650761D01*
X227374000Y-95650761D02*
X227278762Y-95555523D01*
X227278762Y-95555523D02*
X227231143Y-95365047D01*
X227231143Y-95365047D02*
X227231143Y-95031714D01*
X227231143Y-95031714D02*
X227278762Y-94841238D01*
X227278762Y-94841238D02*
X227374000Y-94746000D01*
X227374000Y-94746000D02*
X227469238Y-94698380D01*
X228326381Y-95174571D02*
X228659714Y-95174571D01*
X228802571Y-95698380D02*
X228326381Y-95698380D01*
X228326381Y-95698380D02*
X228326381Y-94698380D01*
X228326381Y-94698380D02*
X228802571Y-94698380D01*
X224012095Y-97318380D02*
X224012095Y-96318380D01*
X224488285Y-96651714D02*
X224488285Y-97318380D01*
X224488285Y-96746952D02*
X224535904Y-96699333D01*
X224535904Y-96699333D02*
X224631142Y-96651714D01*
X224631142Y-96651714D02*
X224773999Y-96651714D01*
X224773999Y-96651714D02*
X224869237Y-96699333D01*
X224869237Y-96699333D02*
X224916856Y-96794571D01*
X224916856Y-96794571D02*
X224916856Y-97318380D01*
X225393047Y-96651714D02*
X225393047Y-97508857D01*
X225393047Y-97508857D02*
X225345428Y-97604095D01*
X225345428Y-97604095D02*
X225250190Y-97651714D01*
X225250190Y-97651714D02*
X225202571Y-97651714D01*
X225393047Y-96318380D02*
X225345428Y-96366000D01*
X225345428Y-96366000D02*
X225393047Y-96413619D01*
X225393047Y-96413619D02*
X225440666Y-96366000D01*
X225440666Y-96366000D02*
X225393047Y-96318380D01*
X225393047Y-96318380D02*
X225393047Y-96413619D01*
X226250189Y-97270761D02*
X226154951Y-97318380D01*
X226154951Y-97318380D02*
X225964475Y-97318380D01*
X225964475Y-97318380D02*
X225869237Y-97270761D01*
X225869237Y-97270761D02*
X225821618Y-97175523D01*
X225821618Y-97175523D02*
X225821618Y-96794571D01*
X225821618Y-96794571D02*
X225869237Y-96699333D01*
X225869237Y-96699333D02*
X225964475Y-96651714D01*
X225964475Y-96651714D02*
X226154951Y-96651714D01*
X226154951Y-96651714D02*
X226250189Y-96699333D01*
X226250189Y-96699333D02*
X226297808Y-96794571D01*
X226297808Y-96794571D02*
X226297808Y-96889809D01*
X226297808Y-96889809D02*
X225821618Y-96985047D01*
X227154951Y-97270761D02*
X227059713Y-97318380D01*
X227059713Y-97318380D02*
X226869237Y-97318380D01*
X226869237Y-97318380D02*
X226773999Y-97270761D01*
X226773999Y-97270761D02*
X226726380Y-97223142D01*
X226726380Y-97223142D02*
X226678761Y-97127904D01*
X226678761Y-97127904D02*
X226678761Y-96842190D01*
X226678761Y-96842190D02*
X226726380Y-96746952D01*
X226726380Y-96746952D02*
X226773999Y-96699333D01*
X226773999Y-96699333D02*
X226869237Y-96651714D01*
X226869237Y-96651714D02*
X227059713Y-96651714D01*
X227059713Y-96651714D02*
X227154951Y-96699333D01*
X227440666Y-96651714D02*
X227821618Y-96651714D01*
X227583523Y-96318380D02*
X227583523Y-97175523D01*
X227583523Y-97175523D02*
X227631142Y-97270761D01*
X227631142Y-97270761D02*
X227726380Y-97318380D01*
X227726380Y-97318380D02*
X227821618Y-97318380D01*
X228297809Y-97318380D02*
X228202571Y-97270761D01*
X228202571Y-97270761D02*
X228154952Y-97223142D01*
X228154952Y-97223142D02*
X228107333Y-97127904D01*
X228107333Y-97127904D02*
X228107333Y-96842190D01*
X228107333Y-96842190D02*
X228154952Y-96746952D01*
X228154952Y-96746952D02*
X228202571Y-96699333D01*
X228202571Y-96699333D02*
X228297809Y-96651714D01*
X228297809Y-96651714D02*
X228440666Y-96651714D01*
X228440666Y-96651714D02*
X228535904Y-96699333D01*
X228535904Y-96699333D02*
X228583523Y-96746952D01*
X228583523Y-96746952D02*
X228631142Y-96842190D01*
X228631142Y-96842190D02*
X228631142Y-97127904D01*
X228631142Y-97127904D02*
X228583523Y-97223142D01*
X228583523Y-97223142D02*
X228535904Y-97270761D01*
X228535904Y-97270761D02*
X228440666Y-97318380D01*
X228440666Y-97318380D02*
X228297809Y-97318380D01*
X229059714Y-97318380D02*
X229059714Y-96651714D01*
X229059714Y-96842190D02*
X229107333Y-96746952D01*
X229107333Y-96746952D02*
X229154952Y-96699333D01*
X229154952Y-96699333D02*
X229250190Y-96651714D01*
X229250190Y-96651714D02*
X229345428Y-96651714D01*
X223649380Y-139604761D02*
X223649380Y-139033333D01*
X224649380Y-139319047D02*
X223649380Y-139319047D01*
X223649380Y-138795237D02*
X224649380Y-138128571D01*
X223649380Y-138128571D02*
X224649380Y-138795237D01*
X142986095Y-109968428D02*
X143748000Y-109968428D01*
X143367047Y-110349380D02*
X143367047Y-109587476D01*
X144557523Y-109825571D02*
X144700380Y-109873190D01*
X144700380Y-109873190D02*
X144747999Y-109920809D01*
X144747999Y-109920809D02*
X144795618Y-110016047D01*
X144795618Y-110016047D02*
X144795618Y-110158904D01*
X144795618Y-110158904D02*
X144747999Y-110254142D01*
X144747999Y-110254142D02*
X144700380Y-110301761D01*
X144700380Y-110301761D02*
X144605142Y-110349380D01*
X144605142Y-110349380D02*
X144224190Y-110349380D01*
X144224190Y-110349380D02*
X144224190Y-109349380D01*
X144224190Y-109349380D02*
X144557523Y-109349380D01*
X144557523Y-109349380D02*
X144652761Y-109397000D01*
X144652761Y-109397000D02*
X144700380Y-109444619D01*
X144700380Y-109444619D02*
X144747999Y-109539857D01*
X144747999Y-109539857D02*
X144747999Y-109635095D01*
X144747999Y-109635095D02*
X144700380Y-109730333D01*
X144700380Y-109730333D02*
X144652761Y-109777952D01*
X144652761Y-109777952D02*
X144557523Y-109825571D01*
X144557523Y-109825571D02*
X144224190Y-109825571D01*
X145176571Y-110063666D02*
X145652761Y-110063666D01*
X145081333Y-110349380D02*
X145414666Y-109349380D01*
X145414666Y-109349380D02*
X145747999Y-110349380D01*
X145938476Y-109349380D02*
X146509904Y-109349380D01*
X146224190Y-110349380D02*
X146224190Y-109349380D01*
X146700381Y-109349380D02*
X147271809Y-109349380D01*
X146986095Y-110349380D02*
X146986095Y-109349380D01*
X136829000Y-99567714D02*
X136781380Y-99662952D01*
X136781380Y-99662952D02*
X136781380Y-99805809D01*
X136781380Y-99805809D02*
X136829000Y-99948666D01*
X136829000Y-99948666D02*
X136924238Y-100043904D01*
X136924238Y-100043904D02*
X137019476Y-100091523D01*
X137019476Y-100091523D02*
X137209952Y-100139142D01*
X137209952Y-100139142D02*
X137352809Y-100139142D01*
X137352809Y-100139142D02*
X137543285Y-100091523D01*
X137543285Y-100091523D02*
X137638523Y-100043904D01*
X137638523Y-100043904D02*
X137733761Y-99948666D01*
X137733761Y-99948666D02*
X137781380Y-99805809D01*
X137781380Y-99805809D02*
X137781380Y-99710571D01*
X137781380Y-99710571D02*
X137733761Y-99567714D01*
X137733761Y-99567714D02*
X137686142Y-99520095D01*
X137686142Y-99520095D02*
X137352809Y-99520095D01*
X137352809Y-99520095D02*
X137352809Y-99710571D01*
X137781380Y-99091523D02*
X136781380Y-99091523D01*
X136781380Y-99091523D02*
X137781380Y-98520095D01*
X137781380Y-98520095D02*
X136781380Y-98520095D01*
X137781380Y-98043904D02*
X136781380Y-98043904D01*
X136781380Y-98043904D02*
X136781380Y-97805809D01*
X136781380Y-97805809D02*
X136829000Y-97662952D01*
X136829000Y-97662952D02*
X136924238Y-97567714D01*
X136924238Y-97567714D02*
X137019476Y-97520095D01*
X137019476Y-97520095D02*
X137209952Y-97472476D01*
X137209952Y-97472476D02*
X137352809Y-97472476D01*
X137352809Y-97472476D02*
X137543285Y-97520095D01*
X137543285Y-97520095D02*
X137638523Y-97567714D01*
X137638523Y-97567714D02*
X137733761Y-97662952D01*
X137733761Y-97662952D02*
X137781380Y-97805809D01*
X137781380Y-97805809D02*
X137781380Y-98043904D01*
%TO.C,J8*%
X88820666Y-95887380D02*
X88820666Y-96601666D01*
X88820666Y-96601666D02*
X88773047Y-96744523D01*
X88773047Y-96744523D02*
X88677809Y-96839761D01*
X88677809Y-96839761D02*
X88534952Y-96887380D01*
X88534952Y-96887380D02*
X88439714Y-96887380D01*
X89439714Y-96315952D02*
X89344476Y-96268333D01*
X89344476Y-96268333D02*
X89296857Y-96220714D01*
X89296857Y-96220714D02*
X89249238Y-96125476D01*
X89249238Y-96125476D02*
X89249238Y-96077857D01*
X89249238Y-96077857D02*
X89296857Y-95982619D01*
X89296857Y-95982619D02*
X89344476Y-95935000D01*
X89344476Y-95935000D02*
X89439714Y-95887380D01*
X89439714Y-95887380D02*
X89630190Y-95887380D01*
X89630190Y-95887380D02*
X89725428Y-95935000D01*
X89725428Y-95935000D02*
X89773047Y-95982619D01*
X89773047Y-95982619D02*
X89820666Y-96077857D01*
X89820666Y-96077857D02*
X89820666Y-96125476D01*
X89820666Y-96125476D02*
X89773047Y-96220714D01*
X89773047Y-96220714D02*
X89725428Y-96268333D01*
X89725428Y-96268333D02*
X89630190Y-96315952D01*
X89630190Y-96315952D02*
X89439714Y-96315952D01*
X89439714Y-96315952D02*
X89344476Y-96363571D01*
X89344476Y-96363571D02*
X89296857Y-96411190D01*
X89296857Y-96411190D02*
X89249238Y-96506428D01*
X89249238Y-96506428D02*
X89249238Y-96696904D01*
X89249238Y-96696904D02*
X89296857Y-96792142D01*
X89296857Y-96792142D02*
X89344476Y-96839761D01*
X89344476Y-96839761D02*
X89439714Y-96887380D01*
X89439714Y-96887380D02*
X89630190Y-96887380D01*
X89630190Y-96887380D02*
X89725428Y-96839761D01*
X89725428Y-96839761D02*
X89773047Y-96792142D01*
X89773047Y-96792142D02*
X89820666Y-96696904D01*
X89820666Y-96696904D02*
X89820666Y-96506428D01*
X89820666Y-96506428D02*
X89773047Y-96411190D01*
X89773047Y-96411190D02*
X89725428Y-96363571D01*
X89725428Y-96363571D02*
X89630190Y-96315952D01*
X78998285Y-93331380D02*
X78664952Y-92855190D01*
X78426857Y-93331380D02*
X78426857Y-92331380D01*
X78426857Y-92331380D02*
X78807809Y-92331380D01*
X78807809Y-92331380D02*
X78903047Y-92379000D01*
X78903047Y-92379000D02*
X78950666Y-92426619D01*
X78950666Y-92426619D02*
X78998285Y-92521857D01*
X78998285Y-92521857D02*
X78998285Y-92664714D01*
X78998285Y-92664714D02*
X78950666Y-92759952D01*
X78950666Y-92759952D02*
X78903047Y-92807571D01*
X78903047Y-92807571D02*
X78807809Y-92855190D01*
X78807809Y-92855190D02*
X78426857Y-92855190D01*
X79760190Y-92807571D02*
X79426857Y-92807571D01*
X79426857Y-93331380D02*
X79426857Y-92331380D01*
X79426857Y-92331380D02*
X79903047Y-92331380D01*
X80284000Y-93331380D02*
X80284000Y-92331380D01*
X80284000Y-92331380D02*
X80522095Y-92331380D01*
X80522095Y-92331380D02*
X80664952Y-92379000D01*
X80664952Y-92379000D02*
X80760190Y-92474238D01*
X80760190Y-92474238D02*
X80807809Y-92569476D01*
X80807809Y-92569476D02*
X80855428Y-92759952D01*
X80855428Y-92759952D02*
X80855428Y-92902809D01*
X80855428Y-92902809D02*
X80807809Y-93093285D01*
X80807809Y-93093285D02*
X80760190Y-93188523D01*
X80760190Y-93188523D02*
X80664952Y-93283761D01*
X80664952Y-93283761D02*
X80522095Y-93331380D01*
X80522095Y-93331380D02*
X80284000Y-93331380D01*
X82169714Y-93712333D02*
X82122095Y-93664714D01*
X82122095Y-93664714D02*
X82026857Y-93521857D01*
X82026857Y-93521857D02*
X81979238Y-93426619D01*
X81979238Y-93426619D02*
X81931619Y-93283761D01*
X81931619Y-93283761D02*
X81884000Y-93045666D01*
X81884000Y-93045666D02*
X81884000Y-92855190D01*
X81884000Y-92855190D02*
X81931619Y-92617095D01*
X81931619Y-92617095D02*
X81979238Y-92474238D01*
X81979238Y-92474238D02*
X82026857Y-92379000D01*
X82026857Y-92379000D02*
X82122095Y-92236142D01*
X82122095Y-92236142D02*
X82169714Y-92188523D01*
X82550667Y-93331380D02*
X82550667Y-92331380D01*
X82550667Y-92331380D02*
X82931619Y-92331380D01*
X82931619Y-92331380D02*
X83026857Y-92379000D01*
X83026857Y-92379000D02*
X83074476Y-92426619D01*
X83074476Y-92426619D02*
X83122095Y-92521857D01*
X83122095Y-92521857D02*
X83122095Y-92664714D01*
X83122095Y-92664714D02*
X83074476Y-92759952D01*
X83074476Y-92759952D02*
X83026857Y-92807571D01*
X83026857Y-92807571D02*
X82931619Y-92855190D01*
X82931619Y-92855190D02*
X82550667Y-92855190D01*
X83455429Y-92331380D02*
X84122095Y-93331380D01*
X84122095Y-92331380D02*
X83455429Y-93331380D01*
X85055429Y-93283761D02*
X85150667Y-93331380D01*
X85150667Y-93331380D02*
X85341143Y-93331380D01*
X85341143Y-93331380D02*
X85436381Y-93283761D01*
X85436381Y-93283761D02*
X85484000Y-93188523D01*
X85484000Y-93188523D02*
X85484000Y-93140904D01*
X85484000Y-93140904D02*
X85436381Y-93045666D01*
X85436381Y-93045666D02*
X85341143Y-92998047D01*
X85341143Y-92998047D02*
X85198286Y-92998047D01*
X85198286Y-92998047D02*
X85103048Y-92950428D01*
X85103048Y-92950428D02*
X85055429Y-92855190D01*
X85055429Y-92855190D02*
X85055429Y-92807571D01*
X85055429Y-92807571D02*
X85103048Y-92712333D01*
X85103048Y-92712333D02*
X85198286Y-92664714D01*
X85198286Y-92664714D02*
X85341143Y-92664714D01*
X85341143Y-92664714D02*
X85436381Y-92712333D01*
X85912572Y-93331380D02*
X85912572Y-92664714D01*
X85912572Y-92331380D02*
X85864953Y-92379000D01*
X85864953Y-92379000D02*
X85912572Y-92426619D01*
X85912572Y-92426619D02*
X85960191Y-92379000D01*
X85960191Y-92379000D02*
X85912572Y-92331380D01*
X85912572Y-92331380D02*
X85912572Y-92426619D01*
X86817333Y-93331380D02*
X86817333Y-92331380D01*
X86817333Y-93283761D02*
X86722095Y-93331380D01*
X86722095Y-93331380D02*
X86531619Y-93331380D01*
X86531619Y-93331380D02*
X86436381Y-93283761D01*
X86436381Y-93283761D02*
X86388762Y-93236142D01*
X86388762Y-93236142D02*
X86341143Y-93140904D01*
X86341143Y-93140904D02*
X86341143Y-92855190D01*
X86341143Y-92855190D02*
X86388762Y-92759952D01*
X86388762Y-92759952D02*
X86436381Y-92712333D01*
X86436381Y-92712333D02*
X86531619Y-92664714D01*
X86531619Y-92664714D02*
X86722095Y-92664714D01*
X86722095Y-92664714D02*
X86817333Y-92712333D01*
X87674476Y-93283761D02*
X87579238Y-93331380D01*
X87579238Y-93331380D02*
X87388762Y-93331380D01*
X87388762Y-93331380D02*
X87293524Y-93283761D01*
X87293524Y-93283761D02*
X87245905Y-93188523D01*
X87245905Y-93188523D02*
X87245905Y-92807571D01*
X87245905Y-92807571D02*
X87293524Y-92712333D01*
X87293524Y-92712333D02*
X87388762Y-92664714D01*
X87388762Y-92664714D02*
X87579238Y-92664714D01*
X87579238Y-92664714D02*
X87674476Y-92712333D01*
X87674476Y-92712333D02*
X87722095Y-92807571D01*
X87722095Y-92807571D02*
X87722095Y-92902809D01*
X87722095Y-92902809D02*
X87245905Y-92998047D01*
X88055429Y-93712333D02*
X88103048Y-93664714D01*
X88103048Y-93664714D02*
X88198286Y-93521857D01*
X88198286Y-93521857D02*
X88245905Y-93426619D01*
X88245905Y-93426619D02*
X88293524Y-93283761D01*
X88293524Y-93283761D02*
X88341143Y-93045666D01*
X88341143Y-93045666D02*
X88341143Y-92855190D01*
X88341143Y-92855190D02*
X88293524Y-92617095D01*
X88293524Y-92617095D02*
X88245905Y-92474238D01*
X88245905Y-92474238D02*
X88198286Y-92379000D01*
X88198286Y-92379000D02*
X88103048Y-92236142D01*
X88103048Y-92236142D02*
X88055429Y-92188523D01*
%TO.C,C1*%
X113371333Y-95522142D02*
X113323714Y-95569761D01*
X113323714Y-95569761D02*
X113180857Y-95617380D01*
X113180857Y-95617380D02*
X113085619Y-95617380D01*
X113085619Y-95617380D02*
X112942762Y-95569761D01*
X112942762Y-95569761D02*
X112847524Y-95474523D01*
X112847524Y-95474523D02*
X112799905Y-95379285D01*
X112799905Y-95379285D02*
X112752286Y-95188809D01*
X112752286Y-95188809D02*
X112752286Y-95045952D01*
X112752286Y-95045952D02*
X112799905Y-94855476D01*
X112799905Y-94855476D02*
X112847524Y-94760238D01*
X112847524Y-94760238D02*
X112942762Y-94665000D01*
X112942762Y-94665000D02*
X113085619Y-94617380D01*
X113085619Y-94617380D02*
X113180857Y-94617380D01*
X113180857Y-94617380D02*
X113323714Y-94665000D01*
X113323714Y-94665000D02*
X113371333Y-94712619D01*
X114323714Y-95617380D02*
X113752286Y-95617380D01*
X114038000Y-95617380D02*
X114038000Y-94617380D01*
X114038000Y-94617380D02*
X113942762Y-94760238D01*
X113942762Y-94760238D02*
X113847524Y-94855476D01*
X113847524Y-94855476D02*
X113752286Y-94903095D01*
%TO.C,C2*%
X130466333Y-100594142D02*
X130418714Y-100641761D01*
X130418714Y-100641761D02*
X130275857Y-100689380D01*
X130275857Y-100689380D02*
X130180619Y-100689380D01*
X130180619Y-100689380D02*
X130037762Y-100641761D01*
X130037762Y-100641761D02*
X129942524Y-100546523D01*
X129942524Y-100546523D02*
X129894905Y-100451285D01*
X129894905Y-100451285D02*
X129847286Y-100260809D01*
X129847286Y-100260809D02*
X129847286Y-100117952D01*
X129847286Y-100117952D02*
X129894905Y-99927476D01*
X129894905Y-99927476D02*
X129942524Y-99832238D01*
X129942524Y-99832238D02*
X130037762Y-99737000D01*
X130037762Y-99737000D02*
X130180619Y-99689380D01*
X130180619Y-99689380D02*
X130275857Y-99689380D01*
X130275857Y-99689380D02*
X130418714Y-99737000D01*
X130418714Y-99737000D02*
X130466333Y-99784619D01*
X130847286Y-99784619D02*
X130894905Y-99737000D01*
X130894905Y-99737000D02*
X130990143Y-99689380D01*
X130990143Y-99689380D02*
X131228238Y-99689380D01*
X131228238Y-99689380D02*
X131323476Y-99737000D01*
X131323476Y-99737000D02*
X131371095Y-99784619D01*
X131371095Y-99784619D02*
X131418714Y-99879857D01*
X131418714Y-99879857D02*
X131418714Y-99975095D01*
X131418714Y-99975095D02*
X131371095Y-100117952D01*
X131371095Y-100117952D02*
X130799667Y-100689380D01*
X130799667Y-100689380D02*
X131418714Y-100689380D01*
%TO.C,J6*%
X140636666Y-104479380D02*
X140636666Y-105193666D01*
X140636666Y-105193666D02*
X140589047Y-105336523D01*
X140589047Y-105336523D02*
X140493809Y-105431761D01*
X140493809Y-105431761D02*
X140350952Y-105479380D01*
X140350952Y-105479380D02*
X140255714Y-105479380D01*
X141541428Y-104479380D02*
X141350952Y-104479380D01*
X141350952Y-104479380D02*
X141255714Y-104527000D01*
X141255714Y-104527000D02*
X141208095Y-104574619D01*
X141208095Y-104574619D02*
X141112857Y-104717476D01*
X141112857Y-104717476D02*
X141065238Y-104907952D01*
X141065238Y-104907952D02*
X141065238Y-105288904D01*
X141065238Y-105288904D02*
X141112857Y-105384142D01*
X141112857Y-105384142D02*
X141160476Y-105431761D01*
X141160476Y-105431761D02*
X141255714Y-105479380D01*
X141255714Y-105479380D02*
X141446190Y-105479380D01*
X141446190Y-105479380D02*
X141541428Y-105431761D01*
X141541428Y-105431761D02*
X141589047Y-105384142D01*
X141589047Y-105384142D02*
X141636666Y-105288904D01*
X141636666Y-105288904D02*
X141636666Y-105050809D01*
X141636666Y-105050809D02*
X141589047Y-104955571D01*
X141589047Y-104955571D02*
X141541428Y-104907952D01*
X141541428Y-104907952D02*
X141446190Y-104860333D01*
X141446190Y-104860333D02*
X141255714Y-104860333D01*
X141255714Y-104860333D02*
X141160476Y-104907952D01*
X141160476Y-104907952D02*
X141112857Y-104955571D01*
X141112857Y-104955571D02*
X141065238Y-105050809D01*
X136193808Y-115683380D02*
X136193808Y-114683380D01*
X136193808Y-114683380D02*
X136527141Y-115397666D01*
X136527141Y-115397666D02*
X136860474Y-114683380D01*
X136860474Y-114683380D02*
X136860474Y-115683380D01*
X137479522Y-115683380D02*
X137384284Y-115635761D01*
X137384284Y-115635761D02*
X137336665Y-115588142D01*
X137336665Y-115588142D02*
X137289046Y-115492904D01*
X137289046Y-115492904D02*
X137289046Y-115207190D01*
X137289046Y-115207190D02*
X137336665Y-115111952D01*
X137336665Y-115111952D02*
X137384284Y-115064333D01*
X137384284Y-115064333D02*
X137479522Y-115016714D01*
X137479522Y-115016714D02*
X137622379Y-115016714D01*
X137622379Y-115016714D02*
X137717617Y-115064333D01*
X137717617Y-115064333D02*
X137765236Y-115111952D01*
X137765236Y-115111952D02*
X137812855Y-115207190D01*
X137812855Y-115207190D02*
X137812855Y-115492904D01*
X137812855Y-115492904D02*
X137765236Y-115588142D01*
X137765236Y-115588142D02*
X137717617Y-115635761D01*
X137717617Y-115635761D02*
X137622379Y-115683380D01*
X137622379Y-115683380D02*
X137479522Y-115683380D01*
X138098570Y-115016714D02*
X138479522Y-115016714D01*
X138241427Y-114683380D02*
X138241427Y-115540523D01*
X138241427Y-115540523D02*
X138289046Y-115635761D01*
X138289046Y-115635761D02*
X138384284Y-115683380D01*
X138384284Y-115683380D02*
X138479522Y-115683380D01*
X138955713Y-115683380D02*
X138860475Y-115635761D01*
X138860475Y-115635761D02*
X138812856Y-115588142D01*
X138812856Y-115588142D02*
X138765237Y-115492904D01*
X138765237Y-115492904D02*
X138765237Y-115207190D01*
X138765237Y-115207190D02*
X138812856Y-115111952D01*
X138812856Y-115111952D02*
X138860475Y-115064333D01*
X138860475Y-115064333D02*
X138955713Y-115016714D01*
X138955713Y-115016714D02*
X139098570Y-115016714D01*
X139098570Y-115016714D02*
X139193808Y-115064333D01*
X139193808Y-115064333D02*
X139241427Y-115111952D01*
X139241427Y-115111952D02*
X139289046Y-115207190D01*
X139289046Y-115207190D02*
X139289046Y-115492904D01*
X139289046Y-115492904D02*
X139241427Y-115588142D01*
X139241427Y-115588142D02*
X139193808Y-115635761D01*
X139193808Y-115635761D02*
X139098570Y-115683380D01*
X139098570Y-115683380D02*
X138955713Y-115683380D01*
X139717618Y-115683380D02*
X139717618Y-115016714D01*
X139717618Y-115207190D02*
X139765237Y-115111952D01*
X139765237Y-115111952D02*
X139812856Y-115064333D01*
X139812856Y-115064333D02*
X139908094Y-115016714D01*
X139908094Y-115016714D02*
X140003332Y-115016714D01*
X141269999Y-115159571D02*
X141412856Y-115207190D01*
X141412856Y-115207190D02*
X141460475Y-115254809D01*
X141460475Y-115254809D02*
X141508094Y-115350047D01*
X141508094Y-115350047D02*
X141508094Y-115492904D01*
X141508094Y-115492904D02*
X141460475Y-115588142D01*
X141460475Y-115588142D02*
X141412856Y-115635761D01*
X141412856Y-115635761D02*
X141317618Y-115683380D01*
X141317618Y-115683380D02*
X140936666Y-115683380D01*
X140936666Y-115683380D02*
X140936666Y-114683380D01*
X140936666Y-114683380D02*
X141269999Y-114683380D01*
X141269999Y-114683380D02*
X141365237Y-114731000D01*
X141365237Y-114731000D02*
X141412856Y-114778619D01*
X141412856Y-114778619D02*
X141460475Y-114873857D01*
X141460475Y-114873857D02*
X141460475Y-114969095D01*
X141460475Y-114969095D02*
X141412856Y-115064333D01*
X141412856Y-115064333D02*
X141365237Y-115111952D01*
X141365237Y-115111952D02*
X141269999Y-115159571D01*
X141269999Y-115159571D02*
X140936666Y-115159571D01*
X142365237Y-115683380D02*
X142365237Y-115159571D01*
X142365237Y-115159571D02*
X142317618Y-115064333D01*
X142317618Y-115064333D02*
X142222380Y-115016714D01*
X142222380Y-115016714D02*
X142031904Y-115016714D01*
X142031904Y-115016714D02*
X141936666Y-115064333D01*
X142365237Y-115635761D02*
X142269999Y-115683380D01*
X142269999Y-115683380D02*
X142031904Y-115683380D01*
X142031904Y-115683380D02*
X141936666Y-115635761D01*
X141936666Y-115635761D02*
X141889047Y-115540523D01*
X141889047Y-115540523D02*
X141889047Y-115445285D01*
X141889047Y-115445285D02*
X141936666Y-115350047D01*
X141936666Y-115350047D02*
X142031904Y-115302428D01*
X142031904Y-115302428D02*
X142269999Y-115302428D01*
X142269999Y-115302428D02*
X142365237Y-115254809D01*
X142698571Y-115016714D02*
X143079523Y-115016714D01*
X142841428Y-114683380D02*
X142841428Y-115540523D01*
X142841428Y-115540523D02*
X142889047Y-115635761D01*
X142889047Y-115635761D02*
X142984285Y-115683380D01*
X142984285Y-115683380D02*
X143079523Y-115683380D01*
X143270000Y-115016714D02*
X143650952Y-115016714D01*
X143412857Y-114683380D02*
X143412857Y-115540523D01*
X143412857Y-115540523D02*
X143460476Y-115635761D01*
X143460476Y-115635761D02*
X143555714Y-115683380D01*
X143555714Y-115683380D02*
X143650952Y-115683380D01*
X144365238Y-115635761D02*
X144270000Y-115683380D01*
X144270000Y-115683380D02*
X144079524Y-115683380D01*
X144079524Y-115683380D02*
X143984286Y-115635761D01*
X143984286Y-115635761D02*
X143936667Y-115540523D01*
X143936667Y-115540523D02*
X143936667Y-115159571D01*
X143936667Y-115159571D02*
X143984286Y-115064333D01*
X143984286Y-115064333D02*
X144079524Y-115016714D01*
X144079524Y-115016714D02*
X144270000Y-115016714D01*
X144270000Y-115016714D02*
X144365238Y-115064333D01*
X144365238Y-115064333D02*
X144412857Y-115159571D01*
X144412857Y-115159571D02*
X144412857Y-115254809D01*
X144412857Y-115254809D02*
X143936667Y-115350047D01*
X144841429Y-115683380D02*
X144841429Y-115016714D01*
X144841429Y-115207190D02*
X144889048Y-115111952D01*
X144889048Y-115111952D02*
X144936667Y-115064333D01*
X144936667Y-115064333D02*
X145031905Y-115016714D01*
X145031905Y-115016714D02*
X145127143Y-115016714D01*
X145365239Y-115016714D02*
X145603334Y-115683380D01*
X145841429Y-115016714D02*
X145603334Y-115683380D01*
X145603334Y-115683380D02*
X145508096Y-115921476D01*
X145508096Y-115921476D02*
X145460477Y-115969095D01*
X145460477Y-115969095D02*
X145365239Y-116016714D01*
%TO.C,J4*%
X144954666Y-94871380D02*
X144954666Y-95585666D01*
X144954666Y-95585666D02*
X144907047Y-95728523D01*
X144907047Y-95728523D02*
X144811809Y-95823761D01*
X144811809Y-95823761D02*
X144668952Y-95871380D01*
X144668952Y-95871380D02*
X144573714Y-95871380D01*
X145859428Y-95204714D02*
X145859428Y-95871380D01*
X145621333Y-94823761D02*
X145383238Y-95538047D01*
X145383238Y-95538047D02*
X146002285Y-95538047D01*
X135582571Y-93283761D02*
X135725428Y-93331380D01*
X135725428Y-93331380D02*
X135963523Y-93331380D01*
X135963523Y-93331380D02*
X136058761Y-93283761D01*
X136058761Y-93283761D02*
X136106380Y-93236142D01*
X136106380Y-93236142D02*
X136153999Y-93140904D01*
X136153999Y-93140904D02*
X136153999Y-93045666D01*
X136153999Y-93045666D02*
X136106380Y-92950428D01*
X136106380Y-92950428D02*
X136058761Y-92902809D01*
X136058761Y-92902809D02*
X135963523Y-92855190D01*
X135963523Y-92855190D02*
X135773047Y-92807571D01*
X135773047Y-92807571D02*
X135677809Y-92759952D01*
X135677809Y-92759952D02*
X135630190Y-92712333D01*
X135630190Y-92712333D02*
X135582571Y-92617095D01*
X135582571Y-92617095D02*
X135582571Y-92521857D01*
X135582571Y-92521857D02*
X135630190Y-92426619D01*
X135630190Y-92426619D02*
X135677809Y-92379000D01*
X135677809Y-92379000D02*
X135773047Y-92331380D01*
X135773047Y-92331380D02*
X136011142Y-92331380D01*
X136011142Y-92331380D02*
X136153999Y-92379000D01*
X136963523Y-93283761D02*
X136868285Y-93331380D01*
X136868285Y-93331380D02*
X136677809Y-93331380D01*
X136677809Y-93331380D02*
X136582571Y-93283761D01*
X136582571Y-93283761D02*
X136534952Y-93188523D01*
X136534952Y-93188523D02*
X136534952Y-92807571D01*
X136534952Y-92807571D02*
X136582571Y-92712333D01*
X136582571Y-92712333D02*
X136677809Y-92664714D01*
X136677809Y-92664714D02*
X136868285Y-92664714D01*
X136868285Y-92664714D02*
X136963523Y-92712333D01*
X136963523Y-92712333D02*
X137011142Y-92807571D01*
X137011142Y-92807571D02*
X137011142Y-92902809D01*
X137011142Y-92902809D02*
X136534952Y-92998047D01*
X137439714Y-93331380D02*
X137439714Y-92664714D01*
X137439714Y-92855190D02*
X137487333Y-92759952D01*
X137487333Y-92759952D02*
X137534952Y-92712333D01*
X137534952Y-92712333D02*
X137630190Y-92664714D01*
X137630190Y-92664714D02*
X137725428Y-92664714D01*
X137963524Y-92664714D02*
X138201619Y-93331380D01*
X138201619Y-93331380D02*
X138439714Y-92664714D01*
X138963524Y-93331380D02*
X138868286Y-93283761D01*
X138868286Y-93283761D02*
X138820667Y-93236142D01*
X138820667Y-93236142D02*
X138773048Y-93140904D01*
X138773048Y-93140904D02*
X138773048Y-92855190D01*
X138773048Y-92855190D02*
X138820667Y-92759952D01*
X138820667Y-92759952D02*
X138868286Y-92712333D01*
X138868286Y-92712333D02*
X138963524Y-92664714D01*
X138963524Y-92664714D02*
X139106381Y-92664714D01*
X139106381Y-92664714D02*
X139201619Y-92712333D01*
X139201619Y-92712333D02*
X139249238Y-92759952D01*
X139249238Y-92759952D02*
X139296857Y-92855190D01*
X139296857Y-92855190D02*
X139296857Y-93140904D01*
X139296857Y-93140904D02*
X139249238Y-93236142D01*
X139249238Y-93236142D02*
X139201619Y-93283761D01*
X139201619Y-93283761D02*
X139106381Y-93331380D01*
X139106381Y-93331380D02*
X138963524Y-93331380D01*
X140325429Y-93331380D02*
X140325429Y-92331380D01*
X140325429Y-92331380D02*
X140706381Y-92331380D01*
X140706381Y-92331380D02*
X140801619Y-92379000D01*
X140801619Y-92379000D02*
X140849238Y-92426619D01*
X140849238Y-92426619D02*
X140896857Y-92521857D01*
X140896857Y-92521857D02*
X140896857Y-92664714D01*
X140896857Y-92664714D02*
X140849238Y-92759952D01*
X140849238Y-92759952D02*
X140801619Y-92807571D01*
X140801619Y-92807571D02*
X140706381Y-92855190D01*
X140706381Y-92855190D02*
X140325429Y-92855190D01*
X141468286Y-93331380D02*
X141373048Y-93283761D01*
X141373048Y-93283761D02*
X141325429Y-93236142D01*
X141325429Y-93236142D02*
X141277810Y-93140904D01*
X141277810Y-93140904D02*
X141277810Y-92855190D01*
X141277810Y-92855190D02*
X141325429Y-92759952D01*
X141325429Y-92759952D02*
X141373048Y-92712333D01*
X141373048Y-92712333D02*
X141468286Y-92664714D01*
X141468286Y-92664714D02*
X141611143Y-92664714D01*
X141611143Y-92664714D02*
X141706381Y-92712333D01*
X141706381Y-92712333D02*
X141754000Y-92759952D01*
X141754000Y-92759952D02*
X141801619Y-92855190D01*
X141801619Y-92855190D02*
X141801619Y-93140904D01*
X141801619Y-93140904D02*
X141754000Y-93236142D01*
X141754000Y-93236142D02*
X141706381Y-93283761D01*
X141706381Y-93283761D02*
X141611143Y-93331380D01*
X141611143Y-93331380D02*
X141468286Y-93331380D01*
X142134953Y-92664714D02*
X142325429Y-93331380D01*
X142325429Y-93331380D02*
X142515905Y-92855190D01*
X142515905Y-92855190D02*
X142706381Y-93331380D01*
X142706381Y-93331380D02*
X142896857Y-92664714D01*
X143658762Y-93283761D02*
X143563524Y-93331380D01*
X143563524Y-93331380D02*
X143373048Y-93331380D01*
X143373048Y-93331380D02*
X143277810Y-93283761D01*
X143277810Y-93283761D02*
X143230191Y-93188523D01*
X143230191Y-93188523D02*
X143230191Y-92807571D01*
X143230191Y-92807571D02*
X143277810Y-92712333D01*
X143277810Y-92712333D02*
X143373048Y-92664714D01*
X143373048Y-92664714D02*
X143563524Y-92664714D01*
X143563524Y-92664714D02*
X143658762Y-92712333D01*
X143658762Y-92712333D02*
X143706381Y-92807571D01*
X143706381Y-92807571D02*
X143706381Y-92902809D01*
X143706381Y-92902809D02*
X143230191Y-92998047D01*
X144134953Y-93331380D02*
X144134953Y-92664714D01*
X144134953Y-92855190D02*
X144182572Y-92759952D01*
X144182572Y-92759952D02*
X144230191Y-92712333D01*
X144230191Y-92712333D02*
X144325429Y-92664714D01*
X144325429Y-92664714D02*
X144420667Y-92664714D01*
%TO.C,R4*%
X125894333Y-109663380D02*
X125561000Y-109187190D01*
X125322905Y-109663380D02*
X125322905Y-108663380D01*
X125322905Y-108663380D02*
X125703857Y-108663380D01*
X125703857Y-108663380D02*
X125799095Y-108711000D01*
X125799095Y-108711000D02*
X125846714Y-108758619D01*
X125846714Y-108758619D02*
X125894333Y-108853857D01*
X125894333Y-108853857D02*
X125894333Y-108996714D01*
X125894333Y-108996714D02*
X125846714Y-109091952D01*
X125846714Y-109091952D02*
X125799095Y-109139571D01*
X125799095Y-109139571D02*
X125703857Y-109187190D01*
X125703857Y-109187190D02*
X125322905Y-109187190D01*
X126751476Y-108996714D02*
X126751476Y-109663380D01*
X126513381Y-108615761D02*
X126275286Y-109330047D01*
X126275286Y-109330047D02*
X126894333Y-109330047D01*
X124894333Y-107301380D02*
X125084809Y-107301380D01*
X125084809Y-107301380D02*
X125180047Y-107253761D01*
X125180047Y-107253761D02*
X125227666Y-107206142D01*
X125227666Y-107206142D02*
X125322904Y-107063285D01*
X125322904Y-107063285D02*
X125370523Y-106872809D01*
X125370523Y-106872809D02*
X125370523Y-106491857D01*
X125370523Y-106491857D02*
X125322904Y-106396619D01*
X125322904Y-106396619D02*
X125275285Y-106349000D01*
X125275285Y-106349000D02*
X125180047Y-106301380D01*
X125180047Y-106301380D02*
X124989571Y-106301380D01*
X124989571Y-106301380D02*
X124894333Y-106349000D01*
X124894333Y-106349000D02*
X124846714Y-106396619D01*
X124846714Y-106396619D02*
X124799095Y-106491857D01*
X124799095Y-106491857D02*
X124799095Y-106729952D01*
X124799095Y-106729952D02*
X124846714Y-106825190D01*
X124846714Y-106825190D02*
X124894333Y-106872809D01*
X124894333Y-106872809D02*
X124989571Y-106920428D01*
X124989571Y-106920428D02*
X125180047Y-106920428D01*
X125180047Y-106920428D02*
X125275285Y-106872809D01*
X125275285Y-106872809D02*
X125322904Y-106825190D01*
X125322904Y-106825190D02*
X125370523Y-106729952D01*
X126322904Y-107301380D02*
X125751476Y-107301380D01*
X126037190Y-107301380D02*
X126037190Y-106301380D01*
X126037190Y-106301380D02*
X125941952Y-106444238D01*
X125941952Y-106444238D02*
X125846714Y-106539476D01*
X125846714Y-106539476D02*
X125751476Y-106587095D01*
X126751476Y-107301380D02*
X126751476Y-106301380D01*
X127322904Y-107301380D02*
X126894333Y-106729952D01*
X127322904Y-106301380D02*
X126751476Y-106872809D01*
%TO.C,J7*%
X93646666Y-95887380D02*
X93646666Y-96601666D01*
X93646666Y-96601666D02*
X93599047Y-96744523D01*
X93599047Y-96744523D02*
X93503809Y-96839761D01*
X93503809Y-96839761D02*
X93360952Y-96887380D01*
X93360952Y-96887380D02*
X93265714Y-96887380D01*
X94027619Y-95887380D02*
X94694285Y-95887380D01*
X94694285Y-95887380D02*
X94265714Y-96887380D01*
X91912286Y-93331380D02*
X91912286Y-92331380D01*
X91912286Y-92331380D02*
X92293238Y-92331380D01*
X92293238Y-92331380D02*
X92388476Y-92379000D01*
X92388476Y-92379000D02*
X92436095Y-92426619D01*
X92436095Y-92426619D02*
X92483714Y-92521857D01*
X92483714Y-92521857D02*
X92483714Y-92664714D01*
X92483714Y-92664714D02*
X92436095Y-92759952D01*
X92436095Y-92759952D02*
X92388476Y-92807571D01*
X92388476Y-92807571D02*
X92293238Y-92855190D01*
X92293238Y-92855190D02*
X91912286Y-92855190D01*
X92912286Y-93331380D02*
X92912286Y-92664714D01*
X92912286Y-92331380D02*
X92864667Y-92379000D01*
X92864667Y-92379000D02*
X92912286Y-92426619D01*
X92912286Y-92426619D02*
X92959905Y-92379000D01*
X92959905Y-92379000D02*
X92912286Y-92331380D01*
X92912286Y-92331380D02*
X92912286Y-92426619D01*
X93293238Y-93331380D02*
X93817047Y-92664714D01*
X93293238Y-92664714D02*
X93817047Y-93331380D01*
X94198000Y-93331380D02*
X94198000Y-92331380D01*
X94626571Y-93331380D02*
X94626571Y-92807571D01*
X94626571Y-92807571D02*
X94578952Y-92712333D01*
X94578952Y-92712333D02*
X94483714Y-92664714D01*
X94483714Y-92664714D02*
X94340857Y-92664714D01*
X94340857Y-92664714D02*
X94245619Y-92712333D01*
X94245619Y-92712333D02*
X94198000Y-92759952D01*
X95531333Y-93331380D02*
X95531333Y-92807571D01*
X95531333Y-92807571D02*
X95483714Y-92712333D01*
X95483714Y-92712333D02*
X95388476Y-92664714D01*
X95388476Y-92664714D02*
X95198000Y-92664714D01*
X95198000Y-92664714D02*
X95102762Y-92712333D01*
X95531333Y-93283761D02*
X95436095Y-93331380D01*
X95436095Y-93331380D02*
X95198000Y-93331380D01*
X95198000Y-93331380D02*
X95102762Y-93283761D01*
X95102762Y-93283761D02*
X95055143Y-93188523D01*
X95055143Y-93188523D02*
X95055143Y-93093285D01*
X95055143Y-93093285D02*
X95102762Y-92998047D01*
X95102762Y-92998047D02*
X95198000Y-92950428D01*
X95198000Y-92950428D02*
X95436095Y-92950428D01*
X95436095Y-92950428D02*
X95531333Y-92902809D01*
X95912286Y-92664714D02*
X96102762Y-93331380D01*
X96102762Y-93331380D02*
X96293238Y-92855190D01*
X96293238Y-92855190D02*
X96483714Y-93331380D01*
X96483714Y-93331380D02*
X96674190Y-92664714D01*
X97055143Y-93331380D02*
X97055143Y-92331380D01*
X97150381Y-92950428D02*
X97436095Y-93331380D01*
X97436095Y-92664714D02*
X97055143Y-93045666D01*
X98893238Y-92331380D02*
X98702762Y-92331380D01*
X98702762Y-92331380D02*
X98607524Y-92379000D01*
X98607524Y-92379000D02*
X98559905Y-92426619D01*
X98559905Y-92426619D02*
X98464667Y-92569476D01*
X98464667Y-92569476D02*
X98417048Y-92759952D01*
X98417048Y-92759952D02*
X98417048Y-93140904D01*
X98417048Y-93140904D02*
X98464667Y-93236142D01*
X98464667Y-93236142D02*
X98512286Y-93283761D01*
X98512286Y-93283761D02*
X98607524Y-93331380D01*
X98607524Y-93331380D02*
X98798000Y-93331380D01*
X98798000Y-93331380D02*
X98893238Y-93283761D01*
X98893238Y-93283761D02*
X98940857Y-93236142D01*
X98940857Y-93236142D02*
X98988476Y-93140904D01*
X98988476Y-93140904D02*
X98988476Y-92902809D01*
X98988476Y-92902809D02*
X98940857Y-92807571D01*
X98940857Y-92807571D02*
X98893238Y-92759952D01*
X98893238Y-92759952D02*
X98798000Y-92712333D01*
X98798000Y-92712333D02*
X98607524Y-92712333D01*
X98607524Y-92712333D02*
X98512286Y-92759952D01*
X98512286Y-92759952D02*
X98464667Y-92807571D01*
X98464667Y-92807571D02*
X98417048Y-92902809D01*
X99417048Y-93236142D02*
X99464667Y-93283761D01*
X99464667Y-93283761D02*
X99417048Y-93331380D01*
X99417048Y-93331380D02*
X99369429Y-93283761D01*
X99369429Y-93283761D02*
X99417048Y-93236142D01*
X99417048Y-93236142D02*
X99417048Y-93331380D01*
X100321809Y-92331380D02*
X100131333Y-92331380D01*
X100131333Y-92331380D02*
X100036095Y-92379000D01*
X100036095Y-92379000D02*
X99988476Y-92426619D01*
X99988476Y-92426619D02*
X99893238Y-92569476D01*
X99893238Y-92569476D02*
X99845619Y-92759952D01*
X99845619Y-92759952D02*
X99845619Y-93140904D01*
X99845619Y-93140904D02*
X99893238Y-93236142D01*
X99893238Y-93236142D02*
X99940857Y-93283761D01*
X99940857Y-93283761D02*
X100036095Y-93331380D01*
X100036095Y-93331380D02*
X100226571Y-93331380D01*
X100226571Y-93331380D02*
X100321809Y-93283761D01*
X100321809Y-93283761D02*
X100369428Y-93236142D01*
X100369428Y-93236142D02*
X100417047Y-93140904D01*
X100417047Y-93140904D02*
X100417047Y-92902809D01*
X100417047Y-92902809D02*
X100369428Y-92807571D01*
X100369428Y-92807571D02*
X100321809Y-92759952D01*
X100321809Y-92759952D02*
X100226571Y-92712333D01*
X100226571Y-92712333D02*
X100036095Y-92712333D01*
X100036095Y-92712333D02*
X99940857Y-92759952D01*
X99940857Y-92759952D02*
X99893238Y-92807571D01*
X99893238Y-92807571D02*
X99845619Y-92902809D01*
X100702762Y-92331380D02*
X101036095Y-93331380D01*
X101036095Y-93331380D02*
X101369428Y-92331380D01*
X102255143Y-93045666D02*
X102731333Y-93045666D01*
X102159905Y-93331380D02*
X102493238Y-92331380D01*
X102493238Y-92331380D02*
X102826571Y-93331380D01*
X103159905Y-93331380D02*
X103159905Y-92331380D01*
X103159905Y-92331380D02*
X103398000Y-92331380D01*
X103398000Y-92331380D02*
X103540857Y-92379000D01*
X103540857Y-92379000D02*
X103636095Y-92474238D01*
X103636095Y-92474238D02*
X103683714Y-92569476D01*
X103683714Y-92569476D02*
X103731333Y-92759952D01*
X103731333Y-92759952D02*
X103731333Y-92902809D01*
X103731333Y-92902809D02*
X103683714Y-93093285D01*
X103683714Y-93093285D02*
X103636095Y-93188523D01*
X103636095Y-93188523D02*
X103540857Y-93283761D01*
X103540857Y-93283761D02*
X103398000Y-93331380D01*
X103398000Y-93331380D02*
X103159905Y-93331380D01*
X104731333Y-93236142D02*
X104683714Y-93283761D01*
X104683714Y-93283761D02*
X104540857Y-93331380D01*
X104540857Y-93331380D02*
X104445619Y-93331380D01*
X104445619Y-93331380D02*
X104302762Y-93283761D01*
X104302762Y-93283761D02*
X104207524Y-93188523D01*
X104207524Y-93188523D02*
X104159905Y-93093285D01*
X104159905Y-93093285D02*
X104112286Y-92902809D01*
X104112286Y-92902809D02*
X104112286Y-92759952D01*
X104112286Y-92759952D02*
X104159905Y-92569476D01*
X104159905Y-92569476D02*
X104207524Y-92474238D01*
X104207524Y-92474238D02*
X104302762Y-92379000D01*
X104302762Y-92379000D02*
X104445619Y-92331380D01*
X104445619Y-92331380D02*
X104540857Y-92331380D01*
X104540857Y-92331380D02*
X104683714Y-92379000D01*
X104683714Y-92379000D02*
X104731333Y-92426619D01*
%TO.C,A3*%
X175561714Y-108531666D02*
X176037904Y-108531666D01*
X175466476Y-108817380D02*
X175799809Y-107817380D01*
X175799809Y-107817380D02*
X176133142Y-108817380D01*
X176371238Y-107817380D02*
X176990285Y-107817380D01*
X176990285Y-107817380D02*
X176656952Y-108198333D01*
X176656952Y-108198333D02*
X176799809Y-108198333D01*
X176799809Y-108198333D02*
X176895047Y-108245952D01*
X176895047Y-108245952D02*
X176942666Y-108293571D01*
X176942666Y-108293571D02*
X176990285Y-108388809D01*
X176990285Y-108388809D02*
X176990285Y-108626904D01*
X176990285Y-108626904D02*
X176942666Y-108722142D01*
X176942666Y-108722142D02*
X176895047Y-108769761D01*
X176895047Y-108769761D02*
X176799809Y-108817380D01*
X176799809Y-108817380D02*
X176514095Y-108817380D01*
X176514095Y-108817380D02*
X176418857Y-108769761D01*
X176418857Y-108769761D02*
X176371238Y-108722142D01*
X175061714Y-106793571D02*
X175204571Y-106841190D01*
X175204571Y-106841190D02*
X175252190Y-106888809D01*
X175252190Y-106888809D02*
X175299809Y-106984047D01*
X175299809Y-106984047D02*
X175299809Y-107126904D01*
X175299809Y-107126904D02*
X175252190Y-107222142D01*
X175252190Y-107222142D02*
X175204571Y-107269761D01*
X175204571Y-107269761D02*
X175109333Y-107317380D01*
X175109333Y-107317380D02*
X174728381Y-107317380D01*
X174728381Y-107317380D02*
X174728381Y-106317380D01*
X174728381Y-106317380D02*
X175061714Y-106317380D01*
X175061714Y-106317380D02*
X175156952Y-106365000D01*
X175156952Y-106365000D02*
X175204571Y-106412619D01*
X175204571Y-106412619D02*
X175252190Y-106507857D01*
X175252190Y-106507857D02*
X175252190Y-106603095D01*
X175252190Y-106603095D02*
X175204571Y-106698333D01*
X175204571Y-106698333D02*
X175156952Y-106745952D01*
X175156952Y-106745952D02*
X175061714Y-106793571D01*
X175061714Y-106793571D02*
X174728381Y-106793571D01*
X176156952Y-106650714D02*
X176156952Y-107317380D01*
X175728381Y-106650714D02*
X175728381Y-107174523D01*
X175728381Y-107174523D02*
X175776000Y-107269761D01*
X175776000Y-107269761D02*
X175871238Y-107317380D01*
X175871238Y-107317380D02*
X176014095Y-107317380D01*
X176014095Y-107317380D02*
X176109333Y-107269761D01*
X176109333Y-107269761D02*
X176156952Y-107222142D01*
X177061714Y-107269761D02*
X176966476Y-107317380D01*
X176966476Y-107317380D02*
X176776000Y-107317380D01*
X176776000Y-107317380D02*
X176680762Y-107269761D01*
X176680762Y-107269761D02*
X176633143Y-107222142D01*
X176633143Y-107222142D02*
X176585524Y-107126904D01*
X176585524Y-107126904D02*
X176585524Y-106841190D01*
X176585524Y-106841190D02*
X176633143Y-106745952D01*
X176633143Y-106745952D02*
X176680762Y-106698333D01*
X176680762Y-106698333D02*
X176776000Y-106650714D01*
X176776000Y-106650714D02*
X176966476Y-106650714D01*
X176966476Y-106650714D02*
X177061714Y-106698333D01*
X177490286Y-107317380D02*
X177490286Y-106317380D01*
X177585524Y-106936428D02*
X177871238Y-107317380D01*
X177871238Y-106650714D02*
X177490286Y-107031666D01*
X149574476Y-100824428D02*
X150336381Y-100824428D01*
X151003047Y-100205380D02*
X151193523Y-100205380D01*
X151193523Y-100205380D02*
X151288761Y-100253000D01*
X151288761Y-100253000D02*
X151383999Y-100348238D01*
X151383999Y-100348238D02*
X151431618Y-100538714D01*
X151431618Y-100538714D02*
X151431618Y-100872047D01*
X151431618Y-100872047D02*
X151383999Y-101062523D01*
X151383999Y-101062523D02*
X151288761Y-101157761D01*
X151288761Y-101157761D02*
X151193523Y-101205380D01*
X151193523Y-101205380D02*
X151003047Y-101205380D01*
X151003047Y-101205380D02*
X150907809Y-101157761D01*
X150907809Y-101157761D02*
X150812571Y-101062523D01*
X150812571Y-101062523D02*
X150764952Y-100872047D01*
X150764952Y-100872047D02*
X150764952Y-100538714D01*
X150764952Y-100538714D02*
X150812571Y-100348238D01*
X150812571Y-100348238D02*
X150907809Y-100253000D01*
X150907809Y-100253000D02*
X151003047Y-100205380D01*
X151860190Y-100205380D02*
X151860190Y-101014904D01*
X151860190Y-101014904D02*
X151907809Y-101110142D01*
X151907809Y-101110142D02*
X151955428Y-101157761D01*
X151955428Y-101157761D02*
X152050666Y-101205380D01*
X152050666Y-101205380D02*
X152241142Y-101205380D01*
X152241142Y-101205380D02*
X152336380Y-101157761D01*
X152336380Y-101157761D02*
X152383999Y-101110142D01*
X152383999Y-101110142D02*
X152431618Y-101014904D01*
X152431618Y-101014904D02*
X152431618Y-100205380D01*
X152764952Y-100205380D02*
X153336380Y-100205380D01*
X153050666Y-101205380D02*
X153050666Y-100205380D01*
X149574476Y-115302428D02*
X150336381Y-115302428D01*
X149955428Y-115683380D02*
X149955428Y-114921476D01*
X151003047Y-114683380D02*
X151193523Y-114683380D01*
X151193523Y-114683380D02*
X151288761Y-114731000D01*
X151288761Y-114731000D02*
X151383999Y-114826238D01*
X151383999Y-114826238D02*
X151431618Y-115016714D01*
X151431618Y-115016714D02*
X151431618Y-115350047D01*
X151431618Y-115350047D02*
X151383999Y-115540523D01*
X151383999Y-115540523D02*
X151288761Y-115635761D01*
X151288761Y-115635761D02*
X151193523Y-115683380D01*
X151193523Y-115683380D02*
X151003047Y-115683380D01*
X151003047Y-115683380D02*
X150907809Y-115635761D01*
X150907809Y-115635761D02*
X150812571Y-115540523D01*
X150812571Y-115540523D02*
X150764952Y-115350047D01*
X150764952Y-115350047D02*
X150764952Y-115016714D01*
X150764952Y-115016714D02*
X150812571Y-114826238D01*
X150812571Y-114826238D02*
X150907809Y-114731000D01*
X150907809Y-114731000D02*
X151003047Y-114683380D01*
X151860190Y-114683380D02*
X151860190Y-115492904D01*
X151860190Y-115492904D02*
X151907809Y-115588142D01*
X151907809Y-115588142D02*
X151955428Y-115635761D01*
X151955428Y-115635761D02*
X152050666Y-115683380D01*
X152050666Y-115683380D02*
X152241142Y-115683380D01*
X152241142Y-115683380D02*
X152336380Y-115635761D01*
X152336380Y-115635761D02*
X152383999Y-115588142D01*
X152383999Y-115588142D02*
X152431618Y-115492904D01*
X152431618Y-115492904D02*
X152431618Y-114683380D01*
X152764952Y-114683380D02*
X153336380Y-114683380D01*
X153050666Y-115683380D02*
X153050666Y-114683380D01*
X199771143Y-115302428D02*
X200533048Y-115302428D01*
X200152095Y-115683380D02*
X200152095Y-114921476D01*
X201009238Y-115683380D02*
X201009238Y-114683380D01*
X201485428Y-115683380D02*
X201485428Y-114683380D01*
X201485428Y-114683380D02*
X202056856Y-115683380D01*
X202056856Y-115683380D02*
X202056856Y-114683380D01*
X199771143Y-100824428D02*
X200533048Y-100824428D01*
X201009238Y-101205380D02*
X201009238Y-100205380D01*
X201485428Y-101205380D02*
X201485428Y-100205380D01*
X201485428Y-100205380D02*
X202056856Y-101205380D01*
X202056856Y-101205380D02*
X202056856Y-100205380D01*
%TO.C,A1*%
X175561714Y-84147666D02*
X176037904Y-84147666D01*
X175466476Y-84433380D02*
X175799809Y-83433380D01*
X175799809Y-83433380D02*
X176133142Y-84433380D01*
X176990285Y-84433380D02*
X176418857Y-84433380D01*
X176704571Y-84433380D02*
X176704571Y-83433380D01*
X176704571Y-83433380D02*
X176609333Y-83576238D01*
X176609333Y-83576238D02*
X176514095Y-83671476D01*
X176514095Y-83671476D02*
X176418857Y-83719095D01*
X175061714Y-82409571D02*
X175204571Y-82457190D01*
X175204571Y-82457190D02*
X175252190Y-82504809D01*
X175252190Y-82504809D02*
X175299809Y-82600047D01*
X175299809Y-82600047D02*
X175299809Y-82742904D01*
X175299809Y-82742904D02*
X175252190Y-82838142D01*
X175252190Y-82838142D02*
X175204571Y-82885761D01*
X175204571Y-82885761D02*
X175109333Y-82933380D01*
X175109333Y-82933380D02*
X174728381Y-82933380D01*
X174728381Y-82933380D02*
X174728381Y-81933380D01*
X174728381Y-81933380D02*
X175061714Y-81933380D01*
X175061714Y-81933380D02*
X175156952Y-81981000D01*
X175156952Y-81981000D02*
X175204571Y-82028619D01*
X175204571Y-82028619D02*
X175252190Y-82123857D01*
X175252190Y-82123857D02*
X175252190Y-82219095D01*
X175252190Y-82219095D02*
X175204571Y-82314333D01*
X175204571Y-82314333D02*
X175156952Y-82361952D01*
X175156952Y-82361952D02*
X175061714Y-82409571D01*
X175061714Y-82409571D02*
X174728381Y-82409571D01*
X176156952Y-82266714D02*
X176156952Y-82933380D01*
X175728381Y-82266714D02*
X175728381Y-82790523D01*
X175728381Y-82790523D02*
X175776000Y-82885761D01*
X175776000Y-82885761D02*
X175871238Y-82933380D01*
X175871238Y-82933380D02*
X176014095Y-82933380D01*
X176014095Y-82933380D02*
X176109333Y-82885761D01*
X176109333Y-82885761D02*
X176156952Y-82838142D01*
X177061714Y-82885761D02*
X176966476Y-82933380D01*
X176966476Y-82933380D02*
X176776000Y-82933380D01*
X176776000Y-82933380D02*
X176680762Y-82885761D01*
X176680762Y-82885761D02*
X176633143Y-82838142D01*
X176633143Y-82838142D02*
X176585524Y-82742904D01*
X176585524Y-82742904D02*
X176585524Y-82457190D01*
X176585524Y-82457190D02*
X176633143Y-82361952D01*
X176633143Y-82361952D02*
X176680762Y-82314333D01*
X176680762Y-82314333D02*
X176776000Y-82266714D01*
X176776000Y-82266714D02*
X176966476Y-82266714D01*
X176966476Y-82266714D02*
X177061714Y-82314333D01*
X177490286Y-82933380D02*
X177490286Y-81933380D01*
X177585524Y-82552428D02*
X177871238Y-82933380D01*
X177871238Y-82266714D02*
X177490286Y-82647666D01*
X149574476Y-90918428D02*
X150336381Y-90918428D01*
X149955428Y-91299380D02*
X149955428Y-90537476D01*
X151003047Y-90299380D02*
X151193523Y-90299380D01*
X151193523Y-90299380D02*
X151288761Y-90347000D01*
X151288761Y-90347000D02*
X151383999Y-90442238D01*
X151383999Y-90442238D02*
X151431618Y-90632714D01*
X151431618Y-90632714D02*
X151431618Y-90966047D01*
X151431618Y-90966047D02*
X151383999Y-91156523D01*
X151383999Y-91156523D02*
X151288761Y-91251761D01*
X151288761Y-91251761D02*
X151193523Y-91299380D01*
X151193523Y-91299380D02*
X151003047Y-91299380D01*
X151003047Y-91299380D02*
X150907809Y-91251761D01*
X150907809Y-91251761D02*
X150812571Y-91156523D01*
X150812571Y-91156523D02*
X150764952Y-90966047D01*
X150764952Y-90966047D02*
X150764952Y-90632714D01*
X150764952Y-90632714D02*
X150812571Y-90442238D01*
X150812571Y-90442238D02*
X150907809Y-90347000D01*
X150907809Y-90347000D02*
X151003047Y-90299380D01*
X151860190Y-90299380D02*
X151860190Y-91108904D01*
X151860190Y-91108904D02*
X151907809Y-91204142D01*
X151907809Y-91204142D02*
X151955428Y-91251761D01*
X151955428Y-91251761D02*
X152050666Y-91299380D01*
X152050666Y-91299380D02*
X152241142Y-91299380D01*
X152241142Y-91299380D02*
X152336380Y-91251761D01*
X152336380Y-91251761D02*
X152383999Y-91204142D01*
X152383999Y-91204142D02*
X152431618Y-91108904D01*
X152431618Y-91108904D02*
X152431618Y-90299380D01*
X152764952Y-90299380D02*
X153336380Y-90299380D01*
X153050666Y-91299380D02*
X153050666Y-90299380D01*
X149574476Y-76440428D02*
X150336381Y-76440428D01*
X151003047Y-75821380D02*
X151193523Y-75821380D01*
X151193523Y-75821380D02*
X151288761Y-75869000D01*
X151288761Y-75869000D02*
X151383999Y-75964238D01*
X151383999Y-75964238D02*
X151431618Y-76154714D01*
X151431618Y-76154714D02*
X151431618Y-76488047D01*
X151431618Y-76488047D02*
X151383999Y-76678523D01*
X151383999Y-76678523D02*
X151288761Y-76773761D01*
X151288761Y-76773761D02*
X151193523Y-76821380D01*
X151193523Y-76821380D02*
X151003047Y-76821380D01*
X151003047Y-76821380D02*
X150907809Y-76773761D01*
X150907809Y-76773761D02*
X150812571Y-76678523D01*
X150812571Y-76678523D02*
X150764952Y-76488047D01*
X150764952Y-76488047D02*
X150764952Y-76154714D01*
X150764952Y-76154714D02*
X150812571Y-75964238D01*
X150812571Y-75964238D02*
X150907809Y-75869000D01*
X150907809Y-75869000D02*
X151003047Y-75821380D01*
X151860190Y-75821380D02*
X151860190Y-76630904D01*
X151860190Y-76630904D02*
X151907809Y-76726142D01*
X151907809Y-76726142D02*
X151955428Y-76773761D01*
X151955428Y-76773761D02*
X152050666Y-76821380D01*
X152050666Y-76821380D02*
X152241142Y-76821380D01*
X152241142Y-76821380D02*
X152336380Y-76773761D01*
X152336380Y-76773761D02*
X152383999Y-76726142D01*
X152383999Y-76726142D02*
X152431618Y-76630904D01*
X152431618Y-76630904D02*
X152431618Y-75821380D01*
X152764952Y-75821380D02*
X153336380Y-75821380D01*
X153050666Y-76821380D02*
X153050666Y-75821380D01*
X199771143Y-90918428D02*
X200533048Y-90918428D01*
X200152095Y-91299380D02*
X200152095Y-90537476D01*
X201009238Y-91299380D02*
X201009238Y-90299380D01*
X201485428Y-91299380D02*
X201485428Y-90299380D01*
X201485428Y-90299380D02*
X202056856Y-91299380D01*
X202056856Y-91299380D02*
X202056856Y-90299380D01*
X199517143Y-76440428D02*
X200279048Y-76440428D01*
X200755238Y-76821380D02*
X200755238Y-75821380D01*
X201231428Y-76821380D02*
X201231428Y-75821380D01*
X201231428Y-75821380D02*
X201802856Y-76821380D01*
X201802856Y-76821380D02*
X201802856Y-75821380D01*
%TO.C,J9*%
X209724666Y-140845380D02*
X209724666Y-141559666D01*
X209724666Y-141559666D02*
X209677047Y-141702523D01*
X209677047Y-141702523D02*
X209581809Y-141797761D01*
X209581809Y-141797761D02*
X209438952Y-141845380D01*
X209438952Y-141845380D02*
X209343714Y-141845380D01*
X210248476Y-141845380D02*
X210438952Y-141845380D01*
X210438952Y-141845380D02*
X210534190Y-141797761D01*
X210534190Y-141797761D02*
X210581809Y-141750142D01*
X210581809Y-141750142D02*
X210677047Y-141607285D01*
X210677047Y-141607285D02*
X210724666Y-141416809D01*
X210724666Y-141416809D02*
X210724666Y-141035857D01*
X210724666Y-141035857D02*
X210677047Y-140940619D01*
X210677047Y-140940619D02*
X210629428Y-140893000D01*
X210629428Y-140893000D02*
X210534190Y-140845380D01*
X210534190Y-140845380D02*
X210343714Y-140845380D01*
X210343714Y-140845380D02*
X210248476Y-140893000D01*
X210248476Y-140893000D02*
X210200857Y-140940619D01*
X210200857Y-140940619D02*
X210153238Y-141035857D01*
X210153238Y-141035857D02*
X210153238Y-141273952D01*
X210153238Y-141273952D02*
X210200857Y-141369190D01*
X210200857Y-141369190D02*
X210248476Y-141416809D01*
X210248476Y-141416809D02*
X210343714Y-141464428D01*
X210343714Y-141464428D02*
X210534190Y-141464428D01*
X210534190Y-141464428D02*
X210629428Y-141416809D01*
X210629428Y-141416809D02*
X210677047Y-141369190D01*
X210677047Y-141369190D02*
X210724666Y-141273952D01*
X219852952Y-144385380D02*
X219519619Y-143909190D01*
X219281524Y-144385380D02*
X219281524Y-143385380D01*
X219281524Y-143385380D02*
X219662476Y-143385380D01*
X219662476Y-143385380D02*
X219757714Y-143433000D01*
X219757714Y-143433000D02*
X219805333Y-143480619D01*
X219805333Y-143480619D02*
X219852952Y-143575857D01*
X219852952Y-143575857D02*
X219852952Y-143718714D01*
X219852952Y-143718714D02*
X219805333Y-143813952D01*
X219805333Y-143813952D02*
X219757714Y-143861571D01*
X219757714Y-143861571D02*
X219662476Y-143909190D01*
X219662476Y-143909190D02*
X219281524Y-143909190D01*
X220614857Y-143861571D02*
X220281524Y-143861571D01*
X220281524Y-144385380D02*
X220281524Y-143385380D01*
X220281524Y-143385380D02*
X220757714Y-143385380D01*
X221138667Y-144385380D02*
X221138667Y-143385380D01*
X221138667Y-143385380D02*
X221376762Y-143385380D01*
X221376762Y-143385380D02*
X221519619Y-143433000D01*
X221519619Y-143433000D02*
X221614857Y-143528238D01*
X221614857Y-143528238D02*
X221662476Y-143623476D01*
X221662476Y-143623476D02*
X221710095Y-143813952D01*
X221710095Y-143813952D02*
X221710095Y-143956809D01*
X221710095Y-143956809D02*
X221662476Y-144147285D01*
X221662476Y-144147285D02*
X221614857Y-144242523D01*
X221614857Y-144242523D02*
X221519619Y-144337761D01*
X221519619Y-144337761D02*
X221376762Y-144385380D01*
X221376762Y-144385380D02*
X221138667Y-144385380D01*
%TO.C,R2*%
X103719333Y-96633380D02*
X103386000Y-96157190D01*
X103147905Y-96633380D02*
X103147905Y-95633380D01*
X103147905Y-95633380D02*
X103528857Y-95633380D01*
X103528857Y-95633380D02*
X103624095Y-95681000D01*
X103624095Y-95681000D02*
X103671714Y-95728619D01*
X103671714Y-95728619D02*
X103719333Y-95823857D01*
X103719333Y-95823857D02*
X103719333Y-95966714D01*
X103719333Y-95966714D02*
X103671714Y-96061952D01*
X103671714Y-96061952D02*
X103624095Y-96109571D01*
X103624095Y-96109571D02*
X103528857Y-96157190D01*
X103528857Y-96157190D02*
X103147905Y-96157190D01*
X104100286Y-95728619D02*
X104147905Y-95681000D01*
X104147905Y-95681000D02*
X104243143Y-95633380D01*
X104243143Y-95633380D02*
X104481238Y-95633380D01*
X104481238Y-95633380D02*
X104576476Y-95681000D01*
X104576476Y-95681000D02*
X104624095Y-95728619D01*
X104624095Y-95728619D02*
X104671714Y-95823857D01*
X104671714Y-95823857D02*
X104671714Y-95919095D01*
X104671714Y-95919095D02*
X104624095Y-96061952D01*
X104624095Y-96061952D02*
X104052667Y-96633380D01*
X104052667Y-96633380D02*
X104671714Y-96633380D01*
X108275523Y-98919380D02*
X107704095Y-98919380D01*
X107989809Y-98919380D02*
X107989809Y-97919380D01*
X107989809Y-97919380D02*
X107894571Y-98062238D01*
X107894571Y-98062238D02*
X107799333Y-98157476D01*
X107799333Y-98157476D02*
X107704095Y-98205095D01*
X108894571Y-97919380D02*
X108989809Y-97919380D01*
X108989809Y-97919380D02*
X109085047Y-97967000D01*
X109085047Y-97967000D02*
X109132666Y-98014619D01*
X109132666Y-98014619D02*
X109180285Y-98109857D01*
X109180285Y-98109857D02*
X109227904Y-98300333D01*
X109227904Y-98300333D02*
X109227904Y-98538428D01*
X109227904Y-98538428D02*
X109180285Y-98728904D01*
X109180285Y-98728904D02*
X109132666Y-98824142D01*
X109132666Y-98824142D02*
X109085047Y-98871761D01*
X109085047Y-98871761D02*
X108989809Y-98919380D01*
X108989809Y-98919380D02*
X108894571Y-98919380D01*
X108894571Y-98919380D02*
X108799333Y-98871761D01*
X108799333Y-98871761D02*
X108751714Y-98824142D01*
X108751714Y-98824142D02*
X108704095Y-98728904D01*
X108704095Y-98728904D02*
X108656476Y-98538428D01*
X108656476Y-98538428D02*
X108656476Y-98300333D01*
X108656476Y-98300333D02*
X108704095Y-98109857D01*
X108704095Y-98109857D02*
X108751714Y-98014619D01*
X108751714Y-98014619D02*
X108799333Y-97967000D01*
X108799333Y-97967000D02*
X108894571Y-97919380D01*
X109656476Y-98919380D02*
X109656476Y-97919380D01*
X110227904Y-98919380D02*
X109799333Y-98347952D01*
X110227904Y-97919380D02*
X109656476Y-98490809D01*
%TO.C,J10*%
X128984476Y-95887380D02*
X128984476Y-96601666D01*
X128984476Y-96601666D02*
X128936857Y-96744523D01*
X128936857Y-96744523D02*
X128841619Y-96839761D01*
X128841619Y-96839761D02*
X128698762Y-96887380D01*
X128698762Y-96887380D02*
X128603524Y-96887380D01*
X129984476Y-96887380D02*
X129413048Y-96887380D01*
X129698762Y-96887380D02*
X129698762Y-95887380D01*
X129698762Y-95887380D02*
X129603524Y-96030238D01*
X129603524Y-96030238D02*
X129508286Y-96125476D01*
X129508286Y-96125476D02*
X129413048Y-96173095D01*
X130603524Y-95887380D02*
X130698762Y-95887380D01*
X130698762Y-95887380D02*
X130794000Y-95935000D01*
X130794000Y-95935000D02*
X130841619Y-95982619D01*
X130841619Y-95982619D02*
X130889238Y-96077857D01*
X130889238Y-96077857D02*
X130936857Y-96268333D01*
X130936857Y-96268333D02*
X130936857Y-96506428D01*
X130936857Y-96506428D02*
X130889238Y-96696904D01*
X130889238Y-96696904D02*
X130841619Y-96792142D01*
X130841619Y-96792142D02*
X130794000Y-96839761D01*
X130794000Y-96839761D02*
X130698762Y-96887380D01*
X130698762Y-96887380D02*
X130603524Y-96887380D01*
X130603524Y-96887380D02*
X130508286Y-96839761D01*
X130508286Y-96839761D02*
X130460667Y-96792142D01*
X130460667Y-96792142D02*
X130413048Y-96696904D01*
X130413048Y-96696904D02*
X130365429Y-96506428D01*
X130365429Y-96506428D02*
X130365429Y-96268333D01*
X130365429Y-96268333D02*
X130413048Y-96077857D01*
X130413048Y-96077857D02*
X130460667Y-95982619D01*
X130460667Y-95982619D02*
X130508286Y-95935000D01*
X130508286Y-95935000D02*
X130603524Y-95887380D01*
X118186619Y-93331380D02*
X118186619Y-92331380D01*
X118186619Y-92331380D02*
X118567571Y-92331380D01*
X118567571Y-92331380D02*
X118662809Y-92379000D01*
X118662809Y-92379000D02*
X118710428Y-92426619D01*
X118710428Y-92426619D02*
X118758047Y-92521857D01*
X118758047Y-92521857D02*
X118758047Y-92664714D01*
X118758047Y-92664714D02*
X118710428Y-92759952D01*
X118710428Y-92759952D02*
X118662809Y-92807571D01*
X118662809Y-92807571D02*
X118567571Y-92855190D01*
X118567571Y-92855190D02*
X118186619Y-92855190D01*
X119186619Y-93331380D02*
X119186619Y-92664714D01*
X119186619Y-92331380D02*
X119139000Y-92379000D01*
X119139000Y-92379000D02*
X119186619Y-92426619D01*
X119186619Y-92426619D02*
X119234238Y-92379000D01*
X119234238Y-92379000D02*
X119186619Y-92331380D01*
X119186619Y-92331380D02*
X119186619Y-92426619D01*
X119567571Y-93331380D02*
X120091380Y-92664714D01*
X119567571Y-92664714D02*
X120091380Y-93331380D01*
X120472333Y-93331380D02*
X120472333Y-92331380D01*
X120900904Y-93331380D02*
X120900904Y-92807571D01*
X120900904Y-92807571D02*
X120853285Y-92712333D01*
X120853285Y-92712333D02*
X120758047Y-92664714D01*
X120758047Y-92664714D02*
X120615190Y-92664714D01*
X120615190Y-92664714D02*
X120519952Y-92712333D01*
X120519952Y-92712333D02*
X120472333Y-92759952D01*
X121805666Y-93331380D02*
X121805666Y-92807571D01*
X121805666Y-92807571D02*
X121758047Y-92712333D01*
X121758047Y-92712333D02*
X121662809Y-92664714D01*
X121662809Y-92664714D02*
X121472333Y-92664714D01*
X121472333Y-92664714D02*
X121377095Y-92712333D01*
X121805666Y-93283761D02*
X121710428Y-93331380D01*
X121710428Y-93331380D02*
X121472333Y-93331380D01*
X121472333Y-93331380D02*
X121377095Y-93283761D01*
X121377095Y-93283761D02*
X121329476Y-93188523D01*
X121329476Y-93188523D02*
X121329476Y-93093285D01*
X121329476Y-93093285D02*
X121377095Y-92998047D01*
X121377095Y-92998047D02*
X121472333Y-92950428D01*
X121472333Y-92950428D02*
X121710428Y-92950428D01*
X121710428Y-92950428D02*
X121805666Y-92902809D01*
X122186619Y-92664714D02*
X122377095Y-93331380D01*
X122377095Y-93331380D02*
X122567571Y-92855190D01*
X122567571Y-92855190D02*
X122758047Y-93331380D01*
X122758047Y-93331380D02*
X122948523Y-92664714D01*
X123329476Y-93331380D02*
X123329476Y-92331380D01*
X123424714Y-92950428D02*
X123710428Y-93331380D01*
X123710428Y-92664714D02*
X123329476Y-93045666D01*
X124739000Y-93331380D02*
X124739000Y-92331380D01*
X124739000Y-92331380D02*
X125119952Y-92331380D01*
X125119952Y-92331380D02*
X125215190Y-92379000D01*
X125215190Y-92379000D02*
X125262809Y-92426619D01*
X125262809Y-92426619D02*
X125310428Y-92521857D01*
X125310428Y-92521857D02*
X125310428Y-92664714D01*
X125310428Y-92664714D02*
X125262809Y-92759952D01*
X125262809Y-92759952D02*
X125215190Y-92807571D01*
X125215190Y-92807571D02*
X125119952Y-92855190D01*
X125119952Y-92855190D02*
X124739000Y-92855190D01*
X125881857Y-93331380D02*
X125786619Y-93283761D01*
X125786619Y-93283761D02*
X125739000Y-93236142D01*
X125739000Y-93236142D02*
X125691381Y-93140904D01*
X125691381Y-93140904D02*
X125691381Y-92855190D01*
X125691381Y-92855190D02*
X125739000Y-92759952D01*
X125739000Y-92759952D02*
X125786619Y-92712333D01*
X125786619Y-92712333D02*
X125881857Y-92664714D01*
X125881857Y-92664714D02*
X126024714Y-92664714D01*
X126024714Y-92664714D02*
X126119952Y-92712333D01*
X126119952Y-92712333D02*
X126167571Y-92759952D01*
X126167571Y-92759952D02*
X126215190Y-92855190D01*
X126215190Y-92855190D02*
X126215190Y-93140904D01*
X126215190Y-93140904D02*
X126167571Y-93236142D01*
X126167571Y-93236142D02*
X126119952Y-93283761D01*
X126119952Y-93283761D02*
X126024714Y-93331380D01*
X126024714Y-93331380D02*
X125881857Y-93331380D01*
X126548524Y-92664714D02*
X126739000Y-93331380D01*
X126739000Y-93331380D02*
X126929476Y-92855190D01*
X126929476Y-92855190D02*
X127119952Y-93331380D01*
X127119952Y-93331380D02*
X127310428Y-92664714D01*
X128072333Y-93283761D02*
X127977095Y-93331380D01*
X127977095Y-93331380D02*
X127786619Y-93331380D01*
X127786619Y-93331380D02*
X127691381Y-93283761D01*
X127691381Y-93283761D02*
X127643762Y-93188523D01*
X127643762Y-93188523D02*
X127643762Y-92807571D01*
X127643762Y-92807571D02*
X127691381Y-92712333D01*
X127691381Y-92712333D02*
X127786619Y-92664714D01*
X127786619Y-92664714D02*
X127977095Y-92664714D01*
X127977095Y-92664714D02*
X128072333Y-92712333D01*
X128072333Y-92712333D02*
X128119952Y-92807571D01*
X128119952Y-92807571D02*
X128119952Y-92902809D01*
X128119952Y-92902809D02*
X127643762Y-92998047D01*
X128548524Y-93331380D02*
X128548524Y-92664714D01*
X128548524Y-92855190D02*
X128596143Y-92759952D01*
X128596143Y-92759952D02*
X128643762Y-92712333D01*
X128643762Y-92712333D02*
X128739000Y-92664714D01*
X128739000Y-92664714D02*
X128834238Y-92664714D01*
%TO.C,R3*%
X120814333Y-101621380D02*
X120481000Y-101145190D01*
X120242905Y-101621380D02*
X120242905Y-100621380D01*
X120242905Y-100621380D02*
X120623857Y-100621380D01*
X120623857Y-100621380D02*
X120719095Y-100669000D01*
X120719095Y-100669000D02*
X120766714Y-100716619D01*
X120766714Y-100716619D02*
X120814333Y-100811857D01*
X120814333Y-100811857D02*
X120814333Y-100954714D01*
X120814333Y-100954714D02*
X120766714Y-101049952D01*
X120766714Y-101049952D02*
X120719095Y-101097571D01*
X120719095Y-101097571D02*
X120623857Y-101145190D01*
X120623857Y-101145190D02*
X120242905Y-101145190D01*
X121147667Y-100621380D02*
X121766714Y-100621380D01*
X121766714Y-100621380D02*
X121433381Y-101002333D01*
X121433381Y-101002333D02*
X121576238Y-101002333D01*
X121576238Y-101002333D02*
X121671476Y-101049952D01*
X121671476Y-101049952D02*
X121719095Y-101097571D01*
X121719095Y-101097571D02*
X121766714Y-101192809D01*
X121766714Y-101192809D02*
X121766714Y-101430904D01*
X121766714Y-101430904D02*
X121719095Y-101526142D01*
X121719095Y-101526142D02*
X121671476Y-101573761D01*
X121671476Y-101573761D02*
X121576238Y-101621380D01*
X121576238Y-101621380D02*
X121290524Y-101621380D01*
X121290524Y-101621380D02*
X121195286Y-101573761D01*
X121195286Y-101573761D02*
X121147667Y-101526142D01*
X125370523Y-103999380D02*
X124799095Y-103999380D01*
X125084809Y-103999380D02*
X125084809Y-102999380D01*
X125084809Y-102999380D02*
X124989571Y-103142238D01*
X124989571Y-103142238D02*
X124894333Y-103237476D01*
X124894333Y-103237476D02*
X124799095Y-103285095D01*
X125989571Y-102999380D02*
X126084809Y-102999380D01*
X126084809Y-102999380D02*
X126180047Y-103047000D01*
X126180047Y-103047000D02*
X126227666Y-103094619D01*
X126227666Y-103094619D02*
X126275285Y-103189857D01*
X126275285Y-103189857D02*
X126322904Y-103380333D01*
X126322904Y-103380333D02*
X126322904Y-103618428D01*
X126322904Y-103618428D02*
X126275285Y-103808904D01*
X126275285Y-103808904D02*
X126227666Y-103904142D01*
X126227666Y-103904142D02*
X126180047Y-103951761D01*
X126180047Y-103951761D02*
X126084809Y-103999380D01*
X126084809Y-103999380D02*
X125989571Y-103999380D01*
X125989571Y-103999380D02*
X125894333Y-103951761D01*
X125894333Y-103951761D02*
X125846714Y-103904142D01*
X125846714Y-103904142D02*
X125799095Y-103808904D01*
X125799095Y-103808904D02*
X125751476Y-103618428D01*
X125751476Y-103618428D02*
X125751476Y-103380333D01*
X125751476Y-103380333D02*
X125799095Y-103189857D01*
X125799095Y-103189857D02*
X125846714Y-103094619D01*
X125846714Y-103094619D02*
X125894333Y-103047000D01*
X125894333Y-103047000D02*
X125989571Y-102999380D01*
X126751476Y-103999380D02*
X126751476Y-102999380D01*
X127322904Y-103999380D02*
X126894333Y-103427952D01*
X127322904Y-102999380D02*
X126751476Y-103570809D01*
%TO.C,R1*%
X108799333Y-104591380D02*
X108466000Y-104115190D01*
X108227905Y-104591380D02*
X108227905Y-103591380D01*
X108227905Y-103591380D02*
X108608857Y-103591380D01*
X108608857Y-103591380D02*
X108704095Y-103639000D01*
X108704095Y-103639000D02*
X108751714Y-103686619D01*
X108751714Y-103686619D02*
X108799333Y-103781857D01*
X108799333Y-103781857D02*
X108799333Y-103924714D01*
X108799333Y-103924714D02*
X108751714Y-104019952D01*
X108751714Y-104019952D02*
X108704095Y-104067571D01*
X108704095Y-104067571D02*
X108608857Y-104115190D01*
X108608857Y-104115190D02*
X108227905Y-104115190D01*
X109751714Y-104591380D02*
X109180286Y-104591380D01*
X109466000Y-104591380D02*
X109466000Y-103591380D01*
X109466000Y-103591380D02*
X109370762Y-103734238D01*
X109370762Y-103734238D02*
X109275524Y-103829476D01*
X109275524Y-103829476D02*
X109180286Y-103877095D01*
X107799333Y-102221380D02*
X107227905Y-102221380D01*
X107513619Y-102221380D02*
X107513619Y-101221380D01*
X107513619Y-101221380D02*
X107418381Y-101364238D01*
X107418381Y-101364238D02*
X107323143Y-101459476D01*
X107323143Y-101459476D02*
X107227905Y-101507095D01*
X108418381Y-101221380D02*
X108513619Y-101221380D01*
X108513619Y-101221380D02*
X108608857Y-101269000D01*
X108608857Y-101269000D02*
X108656476Y-101316619D01*
X108656476Y-101316619D02*
X108704095Y-101411857D01*
X108704095Y-101411857D02*
X108751714Y-101602333D01*
X108751714Y-101602333D02*
X108751714Y-101840428D01*
X108751714Y-101840428D02*
X108704095Y-102030904D01*
X108704095Y-102030904D02*
X108656476Y-102126142D01*
X108656476Y-102126142D02*
X108608857Y-102173761D01*
X108608857Y-102173761D02*
X108513619Y-102221380D01*
X108513619Y-102221380D02*
X108418381Y-102221380D01*
X108418381Y-102221380D02*
X108323143Y-102173761D01*
X108323143Y-102173761D02*
X108275524Y-102126142D01*
X108275524Y-102126142D02*
X108227905Y-102030904D01*
X108227905Y-102030904D02*
X108180286Y-101840428D01*
X108180286Y-101840428D02*
X108180286Y-101602333D01*
X108180286Y-101602333D02*
X108227905Y-101411857D01*
X108227905Y-101411857D02*
X108275524Y-101316619D01*
X108275524Y-101316619D02*
X108323143Y-101269000D01*
X108323143Y-101269000D02*
X108418381Y-101221380D01*
X109370762Y-101221380D02*
X109466000Y-101221380D01*
X109466000Y-101221380D02*
X109561238Y-101269000D01*
X109561238Y-101269000D02*
X109608857Y-101316619D01*
X109608857Y-101316619D02*
X109656476Y-101411857D01*
X109656476Y-101411857D02*
X109704095Y-101602333D01*
X109704095Y-101602333D02*
X109704095Y-101840428D01*
X109704095Y-101840428D02*
X109656476Y-102030904D01*
X109656476Y-102030904D02*
X109608857Y-102126142D01*
X109608857Y-102126142D02*
X109561238Y-102173761D01*
X109561238Y-102173761D02*
X109466000Y-102221380D01*
X109466000Y-102221380D02*
X109370762Y-102221380D01*
X109370762Y-102221380D02*
X109275524Y-102173761D01*
X109275524Y-102173761D02*
X109227905Y-102126142D01*
X109227905Y-102126142D02*
X109180286Y-102030904D01*
X109180286Y-102030904D02*
X109132667Y-101840428D01*
X109132667Y-101840428D02*
X109132667Y-101602333D01*
X109132667Y-101602333D02*
X109180286Y-101411857D01*
X109180286Y-101411857D02*
X109227905Y-101316619D01*
X109227905Y-101316619D02*
X109275524Y-101269000D01*
X109275524Y-101269000D02*
X109370762Y-101221380D01*
X110132667Y-102221380D02*
X110132667Y-101221380D01*
X110704095Y-102221380D02*
X110275524Y-101649952D01*
X110704095Y-101221380D02*
X110132667Y-101792809D01*
D11*
%TO.C,J8*%
X78404000Y-96220000D02*
X78404000Y-98130000D01*
X78404000Y-98130000D02*
X80314000Y-98130000D01*
X78714000Y-94220000D02*
X78714000Y-97820000D01*
X78714000Y-95770000D02*
X79014000Y-95770000D01*
X78714000Y-96520000D02*
X79014000Y-96520000D01*
X78714000Y-97820000D02*
X88064000Y-97820000D01*
X79014000Y-94670000D02*
X79314000Y-94670000D01*
X79014000Y-95770000D02*
X79014000Y-94670000D01*
X79014000Y-96520000D02*
X79014000Y-97520000D01*
X79014000Y-97520000D02*
X87764000Y-97520000D01*
X79314000Y-94670000D02*
X79314000Y-94220000D01*
X79314000Y-94670000D02*
X80514000Y-94670000D01*
X80514000Y-94370000D02*
X81264000Y-94370000D01*
X80514000Y-94670000D02*
X80514000Y-94370000D01*
X81264000Y-94370000D02*
X81264000Y-94670000D01*
X81264000Y-94670000D02*
X85514000Y-94670000D01*
X85514000Y-94370000D02*
X86264000Y-94370000D01*
X85514000Y-94670000D02*
X85514000Y-94370000D01*
X86264000Y-94370000D02*
X86264000Y-94670000D01*
X86264000Y-94670000D02*
X87464000Y-94670000D01*
X87464000Y-94670000D02*
X87464000Y-94220000D01*
X87764000Y-94670000D02*
X87464000Y-94670000D01*
X87764000Y-95770000D02*
X87764000Y-94670000D01*
X87764000Y-96520000D02*
X88064000Y-96520000D01*
X87764000Y-97520000D02*
X87764000Y-96520000D01*
X88064000Y-94220000D02*
X78714000Y-94220000D01*
X88064000Y-95770000D02*
X87764000Y-95770000D01*
X88064000Y-97820000D02*
X88064000Y-94220000D01*
%TO.C,C1*%
X106346000Y-93880000D02*
X106346000Y-94195000D01*
X106346000Y-93880000D02*
X111586000Y-93880000D01*
X106346000Y-96305000D02*
X106346000Y-96620000D01*
X106346000Y-96620000D02*
X111586000Y-96620000D01*
X111586000Y-93880000D02*
X111586000Y-94195000D01*
X111586000Y-96305000D02*
X111586000Y-96620000D01*
%TO.C,C2*%
X123481000Y-98952000D02*
X123481000Y-99267000D01*
X123481000Y-98952000D02*
X128721000Y-98952000D01*
X123481000Y-101377000D02*
X123481000Y-101692000D01*
X123481000Y-101692000D02*
X128721000Y-101692000D01*
X128721000Y-98952000D02*
X128721000Y-99267000D01*
X128721000Y-101377000D02*
X128721000Y-101692000D01*
%TO.C,J6*%
X139640000Y-106112000D02*
X140970000Y-106112000D01*
X139640000Y-107442000D02*
X139640000Y-106112000D01*
X139640000Y-108712000D02*
X139640000Y-113852000D01*
X139640000Y-108712000D02*
X142300000Y-108712000D01*
X139640000Y-113852000D02*
X142300000Y-113852000D01*
X142300000Y-108712000D02*
X142300000Y-113852000D01*
%TO.C,J4*%
X143809000Y-94174000D02*
X143809000Y-95504000D01*
X142479000Y-94174000D02*
X143809000Y-94174000D01*
X141209000Y-94174000D02*
X136069000Y-94174000D01*
X141209000Y-94174000D02*
X141209000Y-96834000D01*
X136069000Y-94174000D02*
X136069000Y-96834000D01*
X141209000Y-96834000D02*
X136069000Y-96834000D01*
%TO.C,R4*%
X130101000Y-106926000D02*
X129331000Y-106926000D01*
X129331000Y-108296000D02*
X129331000Y-105556000D01*
X129331000Y-105556000D02*
X122791000Y-105556000D01*
X122791000Y-108296000D02*
X129331000Y-108296000D01*
X122791000Y-105556000D02*
X122791000Y-108296000D01*
X122021000Y-106926000D02*
X122791000Y-106926000D01*
%TO.C,J2*%
X207244000Y-84528000D02*
X207244000Y-87678000D01*
X207244000Y-87678000D02*
X210094000Y-90278000D01*
X210094000Y-81978000D02*
X207244000Y-84528000D01*
X210094000Y-90278000D02*
X222944000Y-90278000D01*
X222944000Y-81978000D02*
X210094000Y-81978000D01*
X222944000Y-90278000D02*
X222944000Y-81978000D01*
%TO.C,J7*%
X95208000Y-96220000D02*
X95208000Y-98130000D01*
X95208000Y-98130000D02*
X97118000Y-98130000D01*
X95518000Y-94220000D02*
X95518000Y-97820000D01*
X95518000Y-95770000D02*
X95818000Y-95770000D01*
X95518000Y-96520000D02*
X95818000Y-96520000D01*
X95518000Y-97820000D02*
X101118000Y-97820000D01*
X95818000Y-94670000D02*
X96118000Y-94670000D01*
X95818000Y-95770000D02*
X95818000Y-94670000D01*
X95818000Y-96520000D02*
X95818000Y-97520000D01*
X95818000Y-97520000D02*
X100818000Y-97520000D01*
X96118000Y-94670000D02*
X96118000Y-94220000D01*
X96118000Y-94670000D02*
X97318000Y-94670000D01*
X97318000Y-94370000D02*
X98068000Y-94370000D01*
X97318000Y-94670000D02*
X97318000Y-94370000D01*
X98068000Y-94370000D02*
X98068000Y-94670000D01*
X98068000Y-94670000D02*
X98568000Y-94670000D01*
X98568000Y-94370000D02*
X99318000Y-94370000D01*
X98568000Y-94670000D02*
X98568000Y-94370000D01*
X99318000Y-94370000D02*
X99318000Y-94670000D01*
X99318000Y-94670000D02*
X100518000Y-94670000D01*
X100518000Y-94670000D02*
X100518000Y-94220000D01*
X100818000Y-94670000D02*
X100518000Y-94670000D01*
X100818000Y-95770000D02*
X100818000Y-94670000D01*
X100818000Y-96520000D02*
X101118000Y-96520000D01*
X100818000Y-97520000D02*
X100818000Y-96520000D01*
X101118000Y-94220000D02*
X95518000Y-94220000D01*
X101118000Y-95770000D02*
X100818000Y-95770000D01*
X101118000Y-97820000D02*
X101118000Y-94220000D01*
%TO.C,A3*%
X203276000Y-119950000D02*
X149276000Y-119950000D01*
X149276000Y-119950000D02*
X149276000Y-95950000D01*
X149276000Y-95950000D02*
X203276000Y-95950000D01*
X203276000Y-95950000D02*
X203276000Y-119950000D01*
%TO.C,A1*%
X203276000Y-95566000D02*
X149276000Y-95566000D01*
X149276000Y-95566000D02*
X149276000Y-71566000D01*
X149276000Y-71566000D02*
X203276000Y-71566000D01*
X203276000Y-71566000D02*
X203276000Y-95566000D01*
%TO.C,J9*%
X212792000Y-142808000D02*
X212792000Y-141478000D01*
X214122000Y-142808000D02*
X212792000Y-142808000D01*
X215392000Y-142808000D02*
X228152000Y-142808000D01*
X215392000Y-142808000D02*
X215392000Y-140148000D01*
X228152000Y-142808000D02*
X228152000Y-140148000D01*
X215392000Y-140148000D02*
X228152000Y-140148000D01*
%TO.C,R2*%
X104926000Y-98552000D02*
X105696000Y-98552000D01*
X105696000Y-97182000D02*
X105696000Y-99922000D01*
X105696000Y-99922000D02*
X112236000Y-99922000D01*
X112236000Y-97182000D02*
X105696000Y-97182000D01*
X112236000Y-99922000D02*
X112236000Y-97182000D01*
X113006000Y-98552000D02*
X112236000Y-98552000D01*
%TO.C,J10*%
X118459000Y-96212000D02*
X118459000Y-98122000D01*
X118459000Y-98122000D02*
X120369000Y-98122000D01*
X118769000Y-94212000D02*
X118769000Y-97812000D01*
X118769000Y-95762000D02*
X119069000Y-95762000D01*
X118769000Y-96512000D02*
X119069000Y-96512000D01*
X118769000Y-97812000D02*
X128119000Y-97812000D01*
X119069000Y-94662000D02*
X119369000Y-94662000D01*
X119069000Y-95762000D02*
X119069000Y-94662000D01*
X119069000Y-96512000D02*
X119069000Y-97512000D01*
X119069000Y-97512000D02*
X127819000Y-97512000D01*
X119369000Y-94662000D02*
X119369000Y-94212000D01*
X119369000Y-94662000D02*
X120569000Y-94662000D01*
X120569000Y-94362000D02*
X121319000Y-94362000D01*
X120569000Y-94662000D02*
X120569000Y-94362000D01*
X121319000Y-94362000D02*
X121319000Y-94662000D01*
X121319000Y-94662000D02*
X125569000Y-94662000D01*
X125569000Y-94362000D02*
X126319000Y-94362000D01*
X125569000Y-94662000D02*
X125569000Y-94362000D01*
X126319000Y-94362000D02*
X126319000Y-94662000D01*
X126319000Y-94662000D02*
X127519000Y-94662000D01*
X127519000Y-94662000D02*
X127519000Y-94212000D01*
X127819000Y-94662000D02*
X127519000Y-94662000D01*
X127819000Y-95762000D02*
X127819000Y-94662000D01*
X127819000Y-96512000D02*
X128119000Y-96512000D01*
X127819000Y-97512000D02*
X127819000Y-96512000D01*
X128119000Y-94212000D02*
X118769000Y-94212000D01*
X128119000Y-95762000D02*
X127819000Y-95762000D01*
X128119000Y-97812000D02*
X128119000Y-94212000D01*
%TO.C,J3*%
X207244000Y-94434000D02*
X207244000Y-97584000D01*
X207244000Y-97584000D02*
X210094000Y-100184000D01*
X210094000Y-91884000D02*
X207244000Y-94434000D01*
X210094000Y-100184000D02*
X222944000Y-100184000D01*
X222944000Y-91884000D02*
X210094000Y-91884000D01*
X222944000Y-100184000D02*
X222944000Y-91884000D01*
%TO.C,R3*%
X122021000Y-103624000D02*
X122791000Y-103624000D01*
X122791000Y-102254000D02*
X122791000Y-104994000D01*
X122791000Y-104994000D02*
X129331000Y-104994000D01*
X129331000Y-102254000D02*
X122791000Y-102254000D01*
X129331000Y-104994000D02*
X129331000Y-102254000D01*
X130101000Y-103624000D02*
X129331000Y-103624000D01*
%TO.C,J5*%
X207288000Y-104340000D02*
X207288000Y-107490000D01*
X207288000Y-107490000D02*
X210138000Y-110090000D01*
X210138000Y-101790000D02*
X207288000Y-104340000D01*
X210138000Y-110090000D02*
X222988000Y-110090000D01*
X222988000Y-101790000D02*
X210138000Y-101790000D01*
X222988000Y-110090000D02*
X222988000Y-101790000D01*
%TO.C,R1*%
X113006000Y-101854000D02*
X112236000Y-101854000D01*
X112236000Y-103224000D02*
X112236000Y-100484000D01*
X112236000Y-100484000D02*
X105696000Y-100484000D01*
X105696000Y-103224000D02*
X112236000Y-103224000D01*
X105696000Y-100484000D02*
X105696000Y-103224000D01*
X104926000Y-101854000D02*
X105696000Y-101854000D01*
%TD*%
M02*
