%TF.GenerationSoftware,KiCad,Pcbnew,7.0.0*%
%TF.CreationDate,2023-03-08T15:38:49-05:00*%
%TF.ProjectId,right-side,72696768-742d-4736-9964-652e6b696361,rev?*%
%TF.SameCoordinates,Original*%
%TF.FileFunction,Copper,L2,Bot*%
%TF.FilePolarity,Positive*%
%FSLAX46Y46*%
G04 Gerber Fmt 4.6, Leading zero omitted, Abs format (unit mm)*
G04 Created by KiCad (PCBNEW 7.0.0) date 2023-03-08 15:38:49*
%MOMM*%
%LPD*%
G01*
G04 APERTURE LIST*
G04 Aperture macros list*
%AMRoundRect*
0 Rectangle with rounded corners*
0 $1 Rounding radius*
0 $2 $3 $4 $5 $6 $7 $8 $9 X,Y pos of 4 corners*
0 Add a 4 corners polygon primitive as box body*
4,1,4,$2,$3,$4,$5,$6,$7,$8,$9,$2,$3,0*
0 Add four circle primitives for the rounded corners*
1,1,$1+$1,$2,$3*
1,1,$1+$1,$4,$5*
1,1,$1+$1,$6,$7*
1,1,$1+$1,$8,$9*
0 Add four rect primitives between the rounded corners*
20,1,$1+$1,$2,$3,$4,$5,0*
20,1,$1+$1,$4,$5,$6,$7,0*
20,1,$1+$1,$6,$7,$8,$9,0*
20,1,$1+$1,$8,$9,$2,$3,0*%
G04 Aperture macros list end*
%TA.AperFunction,ComponentPad*%
%ADD10RoundRect,0.225000X-0.225000X-0.475000X0.225000X-0.475000X0.225000X0.475000X-0.225000X0.475000X0*%
%TD*%
%TA.AperFunction,ComponentPad*%
%ADD11O,0.900000X1.400000*%
%TD*%
%TA.AperFunction,ComponentPad*%
%ADD12C,1.600000*%
%TD*%
%TA.AperFunction,ComponentPad*%
%ADD13R,1.700000X1.700000*%
%TD*%
%TA.AperFunction,ComponentPad*%
%ADD14O,1.700000X1.700000*%
%TD*%
%TA.AperFunction,ComponentPad*%
%ADD15O,1.600000X1.600000*%
%TD*%
%TA.AperFunction,ComponentPad*%
%ADD16RoundRect,1.500000X-1.500000X-1.500000X1.500000X-1.500000X1.500000X1.500000X-1.500000X1.500000X0*%
%TD*%
%TA.AperFunction,ComponentPad*%
%ADD17C,6.000000*%
%TD*%
%TA.AperFunction,ComponentPad*%
%ADD18R,3.000000X3.000000*%
%TD*%
%TA.AperFunction,ComponentPad*%
%ADD19RoundRect,1.500000X-2.121320X0.000000X0.000000X-2.121320X2.121320X0.000000X0.000000X2.121320X0*%
%TD*%
%TA.AperFunction,ViaPad*%
%ADD20C,0.800000*%
%TD*%
%TA.AperFunction,Conductor*%
%ADD21C,0.762000*%
%TD*%
%TA.AperFunction,Conductor*%
%ADD22C,2.540000*%
%TD*%
%TA.AperFunction,Conductor*%
%ADD23C,0.508000*%
%TD*%
%TA.AperFunction,Conductor*%
%ADD24C,0.381000*%
%TD*%
G04 APERTURE END LIST*
D10*
%TO.P,J8,1,Pin_1*%
%TO.N,Net-(J8-Pin_1)*%
X80264000Y-96520000D03*
D11*
%TO.P,J8,2,Pin_2*%
%TO.N,Net-(J8-Pin_2)*%
X81513999Y-96519999D03*
%TO.P,J8,3,Pin_3*%
%TO.N,Net-(J8-Pin_3)*%
X82763999Y-96519999D03*
%TO.P,J8,4,Pin_4*%
%TO.N,Net-(J8-Pin_4)*%
X84013999Y-96519999D03*
%TO.P,J8,5,Pin_5*%
%TO.N,Net-(J8-Pin_5)*%
X85263999Y-96519999D03*
%TO.P,J8,6,Pin_6*%
%TO.N,Net-(J8-Pin_6)*%
X86513999Y-96519999D03*
%TD*%
D12*
%TO.P,C1,1*%
%TO.N,Net-(J7-Pin_2)*%
X106466000Y-95250000D03*
%TO.P,C1,2*%
%TO.N,Net-(J6-Pin_3)*%
X111466000Y-95250000D03*
%TD*%
%TO.P,C2,1*%
%TO.N,Net-(J10-Pin_4)*%
X123601000Y-100322000D03*
%TO.P,C2,2*%
%TO.N,GND*%
X128601000Y-100322000D03*
%TD*%
D13*
%TO.P,J6,1,Pin_1*%
%TO.N,unconnected-(J6-Pin_1-Pad1)*%
X140969999Y-107441999D03*
D14*
%TO.P,J6,2,Pin_2*%
%TO.N,Net-(J6-Pin_2)*%
X140969999Y-109981999D03*
%TO.P,J6,3,Pin_3*%
%TO.N,Net-(J6-Pin_3)*%
X140969999Y-112521999D03*
%TD*%
D13*
%TO.P,J4,1,Pin_1*%
%TO.N,unconnected-(J4-Pin_1-Pad1)*%
X142478999Y-95503999D03*
D14*
%TO.P,J4,2,Pin_2*%
%TO.N,Net-(A1-VOUT)*%
X139938999Y-95503999D03*
%TO.P,J4,3,Pin_3*%
%TO.N,GND*%
X137398999Y-95503999D03*
%TD*%
D12*
%TO.P,R4,1*%
%TO.N,+BATT*%
X131141000Y-106926000D03*
D15*
%TO.P,R4,2*%
%TO.N,Net-(J10-Pin_4)*%
X120980999Y-106925999D03*
%TD*%
D16*
%TO.P,J2,1,Pin_1*%
%TO.N,GND*%
X211494000Y-86128000D03*
D17*
%TO.P,J2,2,Pin_2*%
%TO.N,+BATT*%
X218694000Y-86128000D03*
%TD*%
D10*
%TO.P,J7,1,Pin_1*%
%TO.N,unconnected-(J7-Pin_1-Pad1)*%
X97068000Y-96520000D03*
D11*
%TO.P,J7,2,Pin_2*%
%TO.N,Net-(J7-Pin_2)*%
X98317999Y-96519999D03*
%TO.P,J7,3,Pin_3*%
%TO.N,Net-(J6-Pin_3)*%
X99567999Y-96519999D03*
%TD*%
D18*
%TO.P,A3,1,VIN*%
%TO.N,+BATT*%
X201025999Y-117699999D03*
%TO.P,A3,2,GND*%
%TO.N,GND*%
X201025999Y-98199999D03*
%TO.P,A3,3,GND*%
X151525999Y-98199999D03*
%TO.P,A3,4,VOUT*%
%TO.N,Net-(A3-VOUT)*%
X151525999Y-117699999D03*
%TD*%
%TO.P,A1,1,VIN*%
%TO.N,+BATT*%
X201025999Y-93315999D03*
%TO.P,A1,2,GND*%
%TO.N,GND*%
X201025999Y-73815999D03*
%TO.P,A1,3,GND*%
X151525999Y-73815999D03*
%TO.P,A1,4,VOUT*%
%TO.N,Net-(A1-VOUT)*%
X151525999Y-93315999D03*
%TD*%
D13*
%TO.P,J9,1,Pin_1*%
%TO.N,Net-(J8-Pin_6)*%
X214121999Y-141477999D03*
D14*
%TO.P,J9,2,Pin_2*%
%TO.N,Net-(J8-Pin_4)*%
X216661999Y-141477999D03*
%TO.P,J9,3,Pin_3*%
%TO.N,Net-(J8-Pin_1)*%
X219201999Y-141477999D03*
%TO.P,J9,4,Pin_4*%
%TO.N,Net-(J8-Pin_2)*%
X221741999Y-141477999D03*
%TO.P,J9,5,Pin_5*%
%TO.N,Net-(J8-Pin_3)*%
X224281999Y-141477999D03*
%TO.P,J9,6,Pin_6*%
%TO.N,Net-(J8-Pin_5)*%
X226821999Y-141477999D03*
%TD*%
D12*
%TO.P,R2,1*%
%TO.N,Net-(J7-Pin_2)*%
X103886000Y-98552000D03*
D15*
%TO.P,R2,2*%
%TO.N,Net-(J6-Pin_3)*%
X114045999Y-98551999D03*
%TD*%
D10*
%TO.P,J10,1,Pin_1*%
%TO.N,Net-(A3-VOUT)*%
X120319000Y-96512000D03*
D11*
%TO.P,J10,2,Pin_2*%
X121568999Y-96511999D03*
%TO.P,J10,3,Pin_3*%
%TO.N,unconnected-(J10-Pin_3-Pad3)*%
X122818999Y-96511999D03*
%TO.P,J10,4,Pin_4*%
%TO.N,Net-(J10-Pin_4)*%
X124068999Y-96511999D03*
%TO.P,J10,5,Pin_5*%
%TO.N,GND*%
X125318999Y-96511999D03*
%TO.P,J10,6,Pin_6*%
X126568999Y-96511999D03*
%TD*%
D16*
%TO.P,J3,1,Pin_1*%
%TO.N,GND*%
X211494000Y-96034000D03*
D17*
%TO.P,J3,2,Pin_2*%
%TO.N,+BATT*%
X218694000Y-96034000D03*
%TD*%
D12*
%TO.P,R3,1*%
%TO.N,Net-(J10-Pin_4)*%
X120981000Y-103624000D03*
D15*
%TO.P,R3,2*%
%TO.N,GND*%
X131140999Y-103623999D03*
%TD*%
D16*
%TO.P,J5,1,Pin_1*%
%TO.N,GND*%
X211538000Y-105940000D03*
D17*
%TO.P,J5,2,Pin_2*%
%TO.N,+BATT*%
X218738000Y-105940000D03*
%TD*%
D12*
%TO.P,R1,1*%
%TO.N,Net-(J6-Pin_2)*%
X114046000Y-101854000D03*
D15*
%TO.P,R1,2*%
%TO.N,Net-(J7-Pin_2)*%
X103885999Y-101853999D03*
%TD*%
D19*
%TO.P,J1,1,Pin_1*%
%TO.N,GND*%
X214630000Y-66592000D03*
D17*
%TO.P,J1,2,Pin_2*%
%TO.N,+BATT*%
X219721169Y-71683169D03*
%TD*%
D20*
%TO.N,Net-(J8-Pin_4)*%
X83058000Y-99822000D03*
%TO.N,Net-(J8-Pin_5)*%
X215392000Y-138684000D03*
X211328000Y-140970000D03*
%TD*%
D21*
%TO.N,GND*%
X126569000Y-96512000D02*
X128257000Y-98200000D01*
X125319000Y-96512000D02*
X126569000Y-96512000D01*
X128601000Y-98544000D02*
X128257000Y-98200000D01*
D22*
X151526000Y-98200000D02*
X201026000Y-98200000D01*
D21*
X128601000Y-100322000D02*
X128601000Y-98544000D01*
X128257000Y-98200000D02*
X151526000Y-98200000D01*
D22*
X201026000Y-73816000D02*
X151526000Y-73816000D01*
D21*
%TO.N,Net-(A3-VOUT)*%
X151526000Y-112410000D02*
X151526000Y-117700000D01*
X141359000Y-102243000D02*
X151526000Y-112410000D01*
X122817000Y-102243000D02*
X141359000Y-102243000D01*
X121569000Y-96512000D02*
X121569000Y-100995000D01*
X121569000Y-100995000D02*
X122817000Y-102243000D01*
%TO.N,Net-(J8-Pin_1)*%
X217170000Y-145107000D02*
X211074000Y-145107000D01*
X80518000Y-107007000D02*
X80264000Y-106753000D01*
X219202000Y-143075000D02*
X217170000Y-145107000D01*
X80264000Y-106753000D02*
X80264000Y-96520000D01*
X219202000Y-141478000D02*
X219202000Y-143075000D01*
X211074000Y-145107000D02*
X80518000Y-107007000D01*
D23*
%TO.N,Net-(J8-Pin_2)*%
X82816416Y-106511416D02*
X81514000Y-105209000D01*
X217932000Y-143164132D02*
X216824132Y-144272000D01*
X220438000Y-140174000D02*
X218661865Y-140174000D01*
X217932000Y-140903865D02*
X217932000Y-140970000D01*
X81514000Y-105209000D02*
X81514000Y-96520000D01*
X218661865Y-140174000D02*
X217932000Y-140903865D01*
X221742000Y-141478000D02*
X220438000Y-140174000D01*
X216824132Y-144272000D02*
X212209348Y-144272000D01*
D24*
X217932000Y-140970000D02*
X217932000Y-142494000D01*
D23*
X212209348Y-144272000D02*
X82816416Y-106511416D01*
X217932000Y-142494000D02*
X217932000Y-143164132D01*
%TO.N,Net-(J8-Pin_3)*%
X212090000Y-142240000D02*
X212349560Y-142240000D01*
X215426000Y-140682000D02*
X215426000Y-140970000D01*
X215900000Y-140208000D02*
X215426000Y-140682000D01*
D24*
X215392000Y-142528000D02*
X215392000Y-141004000D01*
D23*
X222270000Y-139466000D02*
X216642000Y-139466000D01*
X212891560Y-142782000D02*
X215138000Y-142782000D01*
X84423869Y-104552131D02*
X84423869Y-99195869D01*
X216642000Y-139466000D02*
X215900000Y-140208000D01*
X212349560Y-142240000D02*
X212891560Y-142782000D01*
X84423869Y-99195869D02*
X82764000Y-97536000D01*
X84423869Y-104552131D02*
X85032786Y-105161047D01*
X224282000Y-141478000D02*
X222270000Y-139466000D01*
X82764000Y-96520000D02*
X82764000Y-97536000D01*
D24*
X215392000Y-141004000D02*
X215426000Y-140970000D01*
D23*
X85032786Y-105161047D02*
X212090000Y-142240000D01*
D24*
X215138000Y-142782000D02*
X215392000Y-142528000D01*
D23*
%TO.N,Net-(J8-Pin_4)*%
X216662000Y-141478000D02*
X216662000Y-142802000D01*
X212344000Y-143256000D02*
X84582000Y-105971370D01*
X216662000Y-142802000D02*
X215900000Y-143564000D01*
X212652000Y-143564000D02*
X212344000Y-143256000D01*
X215900000Y-143564000D02*
X212652000Y-143564000D01*
X83058000Y-104447370D02*
X84528630Y-105918000D01*
X83058000Y-99822000D02*
X83058000Y-104447370D01*
%TO.N,Net-(J8-Pin_5)*%
X88560016Y-104902000D02*
X88814016Y-105156000D01*
X87017551Y-104902000D02*
X88560016Y-104902000D01*
X226822000Y-141478000D02*
X224028000Y-138684000D01*
X215900000Y-138684000D02*
X215392000Y-138684000D01*
X224028000Y-138684000D02*
X215900000Y-138684000D01*
X85264000Y-103148449D02*
X87017551Y-104902000D01*
X88814016Y-105156000D02*
X211328000Y-140970000D01*
X85264000Y-96520000D02*
X85264000Y-103148449D01*
D21*
%TO.N,Net-(J8-Pin_6)*%
X213868000Y-139954000D02*
X86614000Y-102870000D01*
X86514000Y-96520000D02*
X86614000Y-96620000D01*
X214122000Y-140208000D02*
X213868000Y-139954000D01*
X214122000Y-141478000D02*
X214122000Y-140208000D01*
X86614000Y-96620000D02*
X86614000Y-102870000D01*
%TD*%
M02*
